<?xml version="1.0" encoding="UTF-8"?>
<svg id="Capa_1" xmlns="http://www.w3.org/2000/svg" version="1.1" viewBox="0 0 1473.9 483.2">
  <!-- Generator: Adobe Illustrator 29.7.1, SVG Export Plug-In . SVG Version: 2.1.1 Build 8)  -->
  <defs>
    <style>
      .st0 {
        fill: #1d1e1c;
      }

      .st1 {
        fill: #fff;
      }

      .st2 {
        fill: #fac02c;
      }

      .st3 {
        fill: #e52f28;
      }
    </style>
  </defs>
  <polygon class="st1" points="1074 345.1 1027.7 345.1 1027.7 386.7 990.5 386.7 990.5 266.9 1077.2 266.9 1077.2 297.5 1027.7 297.5 1027.7 316.3 1074 316.3 1074 345.1"/>
  <path class="st1" d="M1125,339.8h23.5l-11.8-34.3-11.8,34.3ZM1167.6,227.4c-6-5.5-13.1-8.2-21.5-8.2s-12.6,2.9-15.2,8.7l-11.4,25.8h21.5l26.6-26.3ZM1162.3,283.7l42.5,103h-38.6l-6.7-18.8h-45.9l-6.5,18.8h-38.6l49.6-120.1h19.6c13.1,0,19.6,5.3,24.4,17.1"/>
  <path class="st1" d="M1242.5,326.8c0,20.5,8,30.7,24.1,30.7s24.2-4.1,33.8-12.3c4.8,5.3,7.2,12.3,7.2,21s-2.9,11.1-8.7,14.7c-7,4.6-20.3,7.8-32.4,7.8-41.1,0-62.1-23-62.1-61.9s20.6-61.9,61.4-61.9,23,2.4,31.2,7.2c5.8,3.6,8.7,8.4,8.7,14.5,0,8.7-2.4,15.9-7.2,21.2-9-7.7-19.8-11.6-32.2-11.6s-23.7,10.2-23.7,30.7"/>
  <path class="st1" d="M1326,386.7v-119.8h18.4c13.5,0,18.8,6,18.8,18.8v101h-37.2Z"/>
  <path class="st1" d="M1384.5,386.7v-119.8h18.8c13.5,0,18.8,6,18.8,18.8v69.8h51.9v31.2h-89.4Z"/>
  <path class="st1" d="M1056.3,156.1l-9.5-27.7-9.5,27.7h19ZM1031.9,96.9h15.9c10.6,0,15.9,4.3,19.7,13.8l34.4,83.4h-31.2l-5.4-15.2h-37.1l-5.2,15.2h-31.2l40.2-97.2Z"/>
  <path class="st1" d="M1160.2,165.8c0-2.3-2.3-4.3-7.2-5.8-.4-.1-3-.8-7.9-2.1-23.7-6.5-36-16.3-36-33.4s13.9-29,38.4-29,23.5,2.2,32.2,6.6c3.9,1.9,5.8,5.7,5.8,11.3s-1.7,9.7-4.8,15.2c-7.7-5.7-20.6-9-31.1-9s-11.2,1.4-11.2,4.3,4.7,5.8,14.2,8.3c11.6,3.2,19,6.1,26.2,11,7.2,5.1,10.6,12.4,10.6,22,0,20.3-14.4,30.5-43.1,30.5s-21.7-1.5-28.4-4.6c-6.1-2.8-8.7-6.5-8.7-12.6s1.5-10.9,4.4-17.5c10.2,7,21.1,10.5,32.9,10.5s13.7-1.9,13.7-5.8"/>
  <path class="st1" d="M1246.2,65.1c-4.8-4.4-10.6-6.6-17.4-6.6s-10.2,2.3-12.3,7l-9.2,20.8h17.4l21.5-21.3ZM1221,97.2c10.9,0,15.2,4.8,15.2,15.2v81.7h-30.1v-96.9h14.9Z"/>
  <path class="st1" d="M1326.2,169.1h12.1c11.7,0,17.7-9.2,17.7-24s-6.6-22.9-19.2-22.9h-10.6v46.9ZM1296.1,194.1v-96.9h40.7c32.2,0,49.3,17.4,49.3,47.9s-15.6,49-47.8,49h-42.2Z"/>
  <path class="st1" d="M1430.7,155.7v13.7h43.2v24.7h-73v-96.9h72.9v24.7h-43.1v11.6h38.5v7c0,10.9-4.8,15.2-15.2,15.2h-23.3Z"/>
  <path class="st1" d="M942.8,410.9c-9.4,0-17.5,5.8-20.9,14.1,3.6-7.7,11.4-13,20.4-13s22.5,10.2,22.5,22.6-.6,5.9-1.7,8.6c1.4-2.9,2.1-6.2,2.1-9.6,0-12.5-10.1-22.6-22.5-22.6M943.6,420.6h-9.5v1h9c6.1,0,9.4,2.1,9.4,7.5s-.1,1.9-.4,2.7c.6-1,.9-2.2.9-3.7,0-5.4-3.3-7.5-9.4-7.5M938.9,425.3h-.5v7.3h4.2c2.4,0,4.5-.3,5.1-2.5-.9,1.3-2.7,1.5-4.6,1.5h-4.2v-6.3ZM927.2,426c-1.2,2.5-1.9,5.4-1.9,8.5,0,10.6,7.6,18.3,17,18.3s13-4.2,15.6-10.7c-2.8,5.9-8.6,9.7-15.2,9.7-9.4,0-17.1-7.7-17.1-18.3s.5-5.3,1.4-7.5M946.9,435.9c-.3,0-.7,0-1,.1l6.3,10.2h1.1l-6.3-10.3ZM938.9,436.3h-.4v10h.4v-10Z"/>
  <path class="st0" d="M942.8,415.3c-7,0-13,4.2-15.6,10.7,2.8-5.9,8.6-9.7,15.2-9.7,9.4,0,17.1,7.7,17.1,18.3s-.5,5.3-1.4,7.5c1.2-2.5,1.9-5.4,1.9-8.5,0-10.6-7.6-18.3-17.1-18.3M934.2,421.6h-.5v25.7h4.7v-1h-4.3v-24.6ZM943.2,424.3h-4.3v1h3.8c2.4,0,5.2.5,5.2,3.5s0,.9-.1,1.3c.4-.6.6-1.3.6-2.3,0-3-2.7-3.5-5.2-3.5M922,425c-1.4,2.9-2.1,6.2-2.1,9.6,0,12.5,10.1,22.7,22.5,22.7s17.5-5.8,20.9-14.1c-3.6,7.7-11.4,13-20.4,13s-22.5-10.2-22.5-22.7.6-5.9,1.7-8.6M952.2,431.9c-1.1,1.9-3.1,2.9-5.8,3.2l.5.9c2.7-.5,4.5-1.8,5.3-4M941.8,435.2h-2.9v1h2.4l6.6,11h4.9l-.6-1h-3.8l-6.6-11Z"/>
  <path class="st0" d="M942.4,411.9c-9,0-16.8,5.3-20.4,13-1.1,2.6-1.7,5.5-1.7,8.6,0,12.5,10.1,22.7,22.5,22.7s16.8-5.3,20.4-13c1.1-2.6,1.7-5.5,1.7-8.6,0-12.5-10.1-22.6-22.5-22.6M927.2,426c2.6-6.5,8.6-10.7,15.6-10.7s17.1,7.7,17.1,18.3-.7,6-1.9,8.5c-2.6,6.5-8.6,10.7-15.6,10.7s-17.1-7.7-17.1-18.3.7-6,1.9-8.5M943.2,421.6h-9v24.6h4.3v-10h.4v-1h2.9l6.6,11h3.8l-6.2-10.2c.3,0,.7,0,1-.1l-.5-.9c2.8-.2,4.8-1.3,5.8-3.2.3-.8.4-1.7.4-2.7,0-5.4-3.3-7.5-9.4-7.5M938.9,425.3v-1h4.2c2.4,0,5.2.5,5.2,3.5s-.2,1.8-.6,2.3c-.6,2.2-2.7,2.5-5.1,2.5h-4.2v-7.3h.4Z"/>
  <path class="st1" d="M845.6,0H72.5C32.5,0,0,32.5,0,72.5v338.2c0,40,32.5,72.5,72.5,72.5h773.1c40,0,72.5-32.5,72.5-72.5V72.5c0-40-32.5-72.5-72.5-72.5M24.2,72.4c0-26.6,21.7-48.2,48.4-48.2h773c26.7,0,48.3,21.6,48.4,48.2H24.2ZM604.2,362.4c5.2,0,10.5-1.7,14.9-5.1,10.5-8.2,12.4-23.4,4.2-33.9l-62.5-80,76.5-100.2c36.7-42.9,73.6-46.4,91.5-46.5h165.3v289.9H292.4c14.2-2,27.8-22,29.6-24.4l65.6-83.3,27.1,34.7,30.1-40-26.5-33.9,39.2-50.1,23.3-29.9c2.9-3.7,4.5-8,5-12.3.9-8-2.3-16.3-9.1-21.6-4.4-3.4-9.6-5.1-14.8-5.1s-4.2.3-6.3.8c-4.9,1.4-9.5,4.2-12.8,8.5l-13.1,16.8-.4.6-41.5,53.2-55.2-70.6c-4.8-6.1-11.8-9.3-19-9.3s-10.5,1.7-14.9,5.1c-10.6,8.2-12.4,23.4-4.2,33.9l62.5,80-76.5,100.2c-32.8,38.4-65.8,45.5-85.2,46.7H24.2V96.6h599.7c-13.7,3-26.5,21.9-28.3,24.2l-65.5,83.3-26.8-34.5-30,40,26.1,33.7-39.1,50.1-23.3,29.9c-3,3.7-4.5,8-5,12.3-.8,8,2.3,16.3,9.1,21.6,4.5,3.4,9.7,5.1,14.9,5.1s4.2-.3,6.2-.8c4.9-1.3,9.4-4.2,12.8-8.5l13.1-16.8.4-.5,41.6-53.2,55.1,70.6c4.8,6.1,11.9,9.3,19.1,9.3M893.7,410.6h0c0,26.6-21.7,48.2-48.3,48.2H72.4c-26.7,0-48.3-21.6-48.4-48.2h869.7ZM748.9,121c-66.8,0-120.8,54.1-120.8,120.8s54.1,120.8,120.8,120.8,120.8-54.1,120.8-120.8-54.1-120.8-120.8-120.8M748.9,314.2c-40.1,0-72.5-32.4-72.5-72.5s32.5-72.5,72.5-72.5,72.5,32.5,72.5,72.5-32.5,72.5-72.5,72.5M169.4,121c-66.7,0-120.8,54.1-120.8,120.8s54.1,120.8,120.8,120.8,120.8-54.1,120.8-120.8-54.1-120.8-120.8-120.8M169.4,314.2c-40,0-72.5-32.4-72.5-72.5s32.5-72.5,72.5-72.5,72.5,32.5,72.5,72.5-32.5,72.5-72.5,72.5"/>
  <path class="st2" d="M845.6,24.2H72.6c-26.7,0-48.3,21.6-48.4,48.2h869.7c0-26.6-21.7-48.2-48.4-48.2"/>
  <path class="st2" d="M893.7,410.6H24c0,26.6,21.7,48.2,48.4,48.2h773c26.6,0,48.3-21.6,48.3-48.2"/>
  <path class="st3" d="M894.1,96.6h-165.3c-17.9.2-54.8,3.6-91.5,46.5l-76.5,100.2,62.5,80c8.2,10.5,6.3,25.7-4.2,33.9-4.4,3.5-9.7,5.1-14.9,5.1s-14.3-3.2-19.1-9.3l-55.1-70.6-41.6,53.2-.4.5-13.1,16.8c-3.4,4.3-7.9,7.1-12.8,8.5-2,.5-4.1.8-6.2.8-5.2,0-10.5-1.6-14.9-5.1-6.8-5.3-9.9-13.6-9.1-21.6.5-4.4,2.1-8.7,5-12.3l23.3-29.9,39.1-50.1-26.1-33.7,30-40,26.8,34.5,65.5-83.3c1.8-2.3,14.6-21.2,28.3-24.2H24.2v289.9h171c19.3-1.2,52.3-8.3,85.2-46.7l76.5-100.2-62.5-80c-8.2-10.5-6.4-25.7,4.2-33.9,4.4-3.5,9.7-5.1,14.9-5.1s14.2,3.2,19,9.3l55.2,70.6,41.5-53.2.4-.6,13.1-16.8c3.3-4.3,7.9-7.1,12.8-8.5,2-.5,4.1-.8,6.3-.8,5.2,0,10.4,1.7,14.8,5.1,6.8,5.3,9.9,13.6,9.1,21.6-.4,4.4-2.1,8.7-5,12.3l-23.3,29.9-39.2,50.1,26.5,33.9-30.1,40-27.1-34.7-65.6,83.3c-1.8,2.4-15.4,22.3-29.6,24.4h601.7V96.6ZM748.9,362.6c-66.8,0-120.8-54.1-120.8-120.8s54.1-120.8,120.8-120.8,120.8,54.1,120.8,120.8-54.1,120.8-120.8,120.8M169.4,362.6c-66.7,0-120.8-54.1-120.8-120.8s54.1-120.8,120.8-120.8,120.8,54.1,120.8,120.8-54.1,120.8-120.8,120.8M748.9,169.3c-40.1,0-72.5,32.5-72.5,72.5s32.5,72.5,72.5,72.5,72.5-32.4,72.5-72.5-32.5-72.5-72.5-72.5M169.4,169.3c-40,0-72.5,32.5-72.5,72.5s32.5,72.5,72.5,72.5,72.5-32.4,72.5-72.5-32.5-72.5-72.5-72.5"/>
</svg>