<?xml version="1.0" encoding="UTF-8"?>
<svg xmlns="http://www.w3.org/2000/svg" version="1.1" viewBox="0 0 40 40">
  <defs>
    <style>
      .cls-1 {
        fill: #fff;
      }
    </style>
  </defs>
  <!-- Generator: Adobe Illustrator 28.7.1, SVG Export Plug-In . SVG Version: 1.2.0 Build 142)  -->
  <g>
    <g id="Capa_1">
      <path class="cls-1" d="M24.8,1.9c1,0,1.9,0,2.9,0,.6,0,1.3.1,1.9.2v5.8h-.5c-.6,0-1.3,0-1.9,0s-1,0-1.4,0c-1.5,0-2.7.6-2.8,2.6,0,1.4,0,4.5,0,4.6,0,0,1.6,0,3.1,0s1.5,0,2,0h1.3c-.3,2.2-.6,4.4-.9,6.6h-5.5v16.4h-6.9v-16.4c.1,0-5.4,0-5.4,0v-6.5h5.6v-.5c0-1.3,0-2.6,0-3.9,0-.8,0-1.7.2-2.5.4-2,1.3-3.7,3-4.9,1.5-1,3.1-1.5,4.9-1.5.2,0,.4,0,.5,0Z"/>
    </g>
  </g>
</svg>