<?xml version="1.0" encoding="UTF-8"?>
<svg xmlns="http://www.w3.org/2000/svg" version="1.1" viewBox="0 0 40 40">
  <defs>
    <style>
      .cls-1 {
        fill: #fff;
      }
    </style>
  </defs>
  <!-- Generator: Adobe Illustrator 28.7.1, SVG Export Plug-In . SVG Version: 1.2.0 Build 142)  -->
  <g>
    <g id="Capa_1">
      <path class="cls-1" d="M118.9,10.6c-.2.4-.5.7-.8,1.1-.7.9-1.6,1.7-2.5,2.4v.2c0,1-.1,2-.3,3.1-.3,2.1-.9,4.2-1.8,6.1-1,2-2.2,3.8-3.8,5.4-2.7,2.7-5.8,4.5-9.5,5.3-1.3.3-2.5.4-3.8.5-.2,0-.4,0-.6,0-3.7,0-7.2-1-10.4-3h-.2c.5,0,1.1,0,1.6,0,1.8,0,3.6-.3,5.3-1,1.2-.5,2.3-1.1,3.3-1.9-3.6-.1-5.8-2.7-6.4-4.8.4,0,.9.1,1.3.1s1.1,0,1.7-.2h.1c-1.9-.5-3.4-1.5-4.4-3.2-.7-1.1-1-2.3-1-3.7,1,.5,2,.8,3.1.8-1.4-1-2.4-2.4-2.8-4.2-.4-1.8-.1-3.4.8-5,3.7,4.4,8.4,6.8,14.2,7.2,0-.3,0-.5-.1-.8-.2-1.6.2-3.1,1.1-4.5,1.1-1.7,2.7-2.8,4.7-3.1.4,0,.8-.1,1.3-.1,1.8,0,3.4.7,4.8,2,0,0,.2.1.3.1s0,0,.1,0c1.4-.3,2.8-.8,4-1.5h0c-.5,1.5-1.5,2.8-2.9,3.7,1.3-.1,2.6-.5,3.8-1Z"/>
      <g>
        <path class="cls-1" d="M28.6,9.5s0,0,0,0c-1.1,0-1.9.9-1.9,1.9,0,1.1.8,1.9,1.9,1.9,1.1,0,1.9-.9,1.9-1.9,0-1.1-.8-1.9-1.9-1.9Z"/>
        <path class="cls-1" d="M35.9,12c-.2-2.1-1-4-2.6-5.5-1.6-1.6-3.7-2.3-5.9-2.4-1.8,0-4.8-.2-7.8-.2s-6.4,0-8,.4c-3.6.6-6,2.7-7,6.2-.8,2.7-.7,15.3-.3,18,.6,3.7,2.8,6.1,6.4,7,1.3.3,5.1.5,8.9.5s7.5-.1,8.9-.4c3.7-.6,6.1-2.8,7.1-6.4.7-2.8.6-14.7.4-17.3ZM32.8,28c-.4,2.8-2.3,4.6-5.1,4.9-1.2.1-4.5.2-7.9.2s-7.4-.1-8.6-.5c-2.3-.6-3.6-2.2-4-4.5-.3-2.2-.4-13.3.1-16.2.4-2.8,2.3-4.5,5.1-4.8,1.4-.2,4.6-.2,7.8-.2s6.6,0,8,.3c2.8.4,4.5,2.3,4.8,5.1.3,2.6.3,12.9-.2,15.8Z"/>
        <path class="cls-1" d="M20.1,11.8c-4.6,0-8.3,3.7-8.3,8.2,0,4.6,3.6,8.2,8.2,8.2s8.3-3.7,8.3-8.2c0-4.6-3.6-8.2-8.2-8.2ZM19.9,25.3s0,0,0,0c-2.9,0-5.3-2.4-5.2-5.4,0-2.9,2.5-5.3,5.4-5.3,0,0,0,0,0,0,2.9,0,5.3,2.4,5.2,5.4,0,2.9-2.5,5.3-5.4,5.3Z"/>
      </g>
      <path class="cls-1" d="M20.4,81.2c.6,0,1.3,0,1.9.1,6.4.7,10.4,5.1,11.1,10.1.3,2.3,0,7.8-3.2,11.8-2.1,2.6-5,3.8-7.6,3.8s-3.6-.6-4.7-1.8c-.2-.2-.4-.5-.6-.7v.3c-1.4,5.1-1.6,6.3-3,8.7-.7,1.1-1.4,2.2-2.2,3.2,0,.1-.2.2-.3.2-.2,0-.3-.2-.3-.4-.2-1.6-.3-3.1-.2-4.7,0-2,.3-2.8,3.1-13.9,0-.2,0-.3,0-.5-.6-1.7-.7-3.5-.2-5.2.7-2.1,2.3-3.1,3.7-3.1s2.3.7,2.6,2.1c.4,1.9-.8,4.5-1.8,8.2-.6,2.2,1.1,4,3.3,4s1.8-.3,2.7-.9c2.9-2.1,4-7.1,3.9-10.6-.3-5.1-4.3-7.3-8.4-7.3-1.6,0-3.2.3-4.6,1-5.6,2.6-7,9.6-4.5,12.8.3.4.6.6.5,1.1-.2.6-.3,1.3-.5,1.9,0,.3-.3.5-.6.5s-.2,0-.4,0c-.9-.4-1.7-1-2.3-1.8-2.1-2.7-2.7-8,.2-12.4,2.8-4.4,7.8-6.5,12.6-6.5Z"/>
      <path class="cls-1" d="M95.4,89.5c.3,0,.7,0,1,.1.2,0,.4.3.5.5.5,1.1.9,2.2,1.3,3.3.2.6-.2,1.2-1.1,2.1-.3.3-.3.6-.1,1,1.4,2.4,3.3,4.1,5.9,5.1.1,0,.2,0,.3,0,.2,0,.4-.1.6-.3,1.1-1.3,1.4-1.9,1.8-1.9s.2,0,.4.1c3.4,1.6,3.7,1.7,3.7,2.1,0,2.7-2.3,3.8-3.9,3.8s-.2,0-.2,0c-3.3-.1-8.6-2.7-12.2-9-1.3-2.2-1.1-4.8.8-6.5.4-.3.8-.4,1.2-.4Z"/>
      <path class="cls-1" d="M117.9,94.2c1.6,9.4-4.6,18.3-13.9,19.9-1,.2-2,.3-3,.3-2.6,0-5.2-.6-7.6-1.8-.2-.1-.5-.2-.7-.2s-.2,0-.3,0c-4.5,1.1-7.5,2-8.4,2.2.2-.7.4-1.4.5-2,.6-2.1,1.2-4.1,1.7-6.2,0-.3,0-.7,0-1-5.2-10,.3-22,11.3-24.6,1.4-.3,2.7-.5,4-.5,8.3,0,15.1,6.1,16.5,13.8ZM103.3,111.3c7.7-1.2,13-8.4,11.9-16.1-1-7.1-7-12.1-13.9-12.1-.9,0-1.7,0-2.6.2-9.6,1.8-14.7,12.4-10,20.8.5.9.7,1.7.3,2.7-.4,1.2-.7,2.4-1.1,3.8,1.7-.4,3.3-.8,4.8-1.3.1,0,.3,0,.4,0,.3,0,.5,0,.8.2,2.2,1.3,4.6,2,7.1,2s1.5,0,2.3-.2"/>
      <path class="cls-1" d="M176.4,84c2.3,0,4.4.6,6.3,1.7,1.3.7,2.1,1.5,2.4,1.7-1.3,1.3-2.6,2.6-3.9,3.9-1-.8-2.1-1.6-3.9-1.9-.4,0-.8,0-1.1,0-3.7,0-6.9,2.7-7.7,6.3-.2.8-.3,1.6-.2,2.4.3,3.3,2.5,6,5.5,7,.8.2,1.5.4,2.3.4s.4,0,.6,0c1.4,0,2.7-.5,3.9-1.3,2-1.4,2.7-3.5,2.7-4h-7.2c0-.2,0-3.5,0-5.2v-.2h12.6c.7,3.9,0,8.1-2.4,11.3-1.7,2.2-3.9,3.6-6.6,4.3-1.2.3-2.4.5-3.6.5s-.5,0-.8,0c-2.6-.2-5-1-7.1-2.5-2.7-2-4.5-4.7-5.2-8-.3-1.2-.4-2.4-.3-3.6.2-2.9,1.2-5.4,3-7.7,1.9-2.3,4.3-3.9,7.2-4.6.7-.2,1.5-.3,2.2-.3.4,0,.9,0,1.3,0Z"/>
      <polygon class="cls-1" points="200.4 90.3 200.4 90.4 200.3 94.9 204.9 94.9 205 94.9 205 95.1 205 98.5 205 98.6 204.8 98.6 200.3 98.6 200.3 103.1 200.3 103.3 200.1 103.3 196.7 103.3 196.6 103.3 196.6 103.1 196.6 98.6 192.1 98.6 192 98.6 192 98.5 192 95.1 192 94.9 192.1 94.9 196.7 94.9 196.7 90.4 196.7 90.3 196.8 90.3 200.2 90.3 200.4 90.3"/>
      <path class="cls-1" d="M8.6,158.7c2,0,3.5,1.6,3.5,3.5,0,1.9-1.6,3.5-3.6,3.5s-3.5-1.6-3.5-3.5,1.6-3.5,3.6-3.5Z"/>
      <polygon class="cls-1" points="11.6 168.4 11.5 188 5.4 188 5.5 168.4 11.6 168.4"/>
      <path class="cls-1" d="M27.1,168c6.2,0,7.3,4,7.2,9.3v10.8h-6.2v-9.5c0-2.3,0-5.2-3.1-5.2s-3.7,2.5-3.7,5v9.7h-6.2v-19.6h6v2.7s0,0,0,0c.8-1.5,2.8-3.2,5.8-3.2Z"/>
      <path class="cls-1" d="M101.4,159.1c4.6,0,8.2,3.7,8.2,8.3,0,1.8,0,3.6,0,5,.1,0,.4.1.8.1s.7,0,1-.2c.5-.2.9-.4,1.3-.4.3,0,.7.1,1,.5.7.7,0,1.4-1.2,1.8-1,.4-2.7.8-2.7,2.2.4,1.7,1.5,3.4,3.5,5,1.7,1.3,2.8,1.4,3.4,1.4s.1,0,.2,0c0,0,0,0,.1,0,0,0,.2,0,.2,0,0,.3.3,1.3-1.7,1.8-2,.5-2.4.2-2.8,1.2-.4,1-.3,1.5-.8,1.5s-1.8-.3-3.2-.3-1.2,0-1.6.2c-1.2.6-3.2,2.9-6.1,3-2.9-.1-4.8-2.5-6-3-.4-.2-1-.2-1.6-.2-1.3,0-2.8.3-3.2.3-.5,0-.4-.5-.7-1.5-.4-1-.8-.7-2.8-1.2-2-.5-1.8-1.6-1.7-1.8,0,0,0,0,.2,0s0,0,.1,0c0,0,.1,0,.2,0,.6,0,1.7-.1,3.4-1.4,2.1-1.6,3.2-3.4,3.6-5,0-1.4-1.6-1.8-2.7-2.2-1.1-.4-1.8-1.1-1.1-1.8.3-.3.7-.5,1-.5.4,0,.8.2,1.3.4.3.2.7.2,1,.2s.6,0,.8-.1c0-1.4,0-3.2,0-5,0-4.6,3.8-8.3,8.3-8.3h.3Z"/>
      <path class="cls-1" d="M199.6,166.1c1.2,3.1,1.1,14.5-.3,17.6-.4.8-1,1.4-1.8,1.8-1.1.6-7.6.9-14,.9s-11.6-.2-12.9-.7c-1.2-.4-2.1-1.2-2.5-2.5-1.1-3-1.3-15.7.8-18.2.7-.9,1.7-1.4,2.8-1.5,2.6-.3,7.5-.4,12.3-.4s12,.2,13.1.6c1.2.4,2,1.2,2.5,2.4ZM179.7,179.7c3.4-1.8,6.9-3.6,10.3-5.4-3.4-1.8-6.8-3.6-10.3-5.4,0,3.6,0,7.1,0,10.7"/>
    </g>
  </g>
</svg>