<?xml version="1.0" encoding="UTF-8"?>
<svg xmlns="http://www.w3.org/2000/svg" version="1.1" viewBox="0 0 40 40">
  <defs>
    <style>
      .cls-1 {
        fill: #fff;
      }
    </style>
  </defs>
  <!-- Generator: Adobe Illustrator 28.7.1, SVG Export Plug-In . SVG Version: 1.2.0 Build 142)  -->
  <g>
    <g id="Capa_1">
      <g>
        <path class="cls-1" d="M8.9,5.3c-1.9,0-3.5,1.6-3.6,3.5,0,1.9,1.6,3.5,3.5,3.5s3.5-1.6,3.6-3.5c0-1.9-1.5-3.5-3.5-3.5Z"/>
        <polygon class="cls-1" points="5.6 34.7 11.7 34.7 11.9 15.1 5.8 15.1 5.6 34.7"/>
        <path class="cls-1" d="M27.4,14.6c-3,0-5,1.6-5.8,3.2h0v-2.7s-5.8,0-5.8,0v19.6c-.1,0,5.9,0,5.9,0v-9.7c0-2.6.6-5,3.8-5s3.1,2.9,3.1,5.2v9.5c0,0,6,0,6,0v-10.8c.1-5.3-1-9.3-7.2-9.3Z"/>
      </g>
    </g>
  </g>
</svg>