<?xml version="1.0" encoding="UTF-8"?>
<svg xmlns="http://www.w3.org/2000/svg" version="1.1" viewBox="0 0 40 40">
  <defs>
    <style>
      .cls-1 {
        fill: #fff;
      }
    </style>
  </defs>
  <!-- Generator: Adobe Illustrator 28.7.1, SVG Export Plug-In . SVG Version: 1.2.0 Build 142)  -->
  <g>
    <g id="Capa_1">
      <path class="cls-1" d="M36.8,9.6c-.2.4-.5.7-.8,1.1-.7.9-1.6,1.7-2.5,2.4v.2c0,1-.1,2-.3,3.1-.3,2.1-.9,4.2-1.8,6.1-1,2-2.2,3.8-3.8,5.4-2.7,2.7-5.8,4.5-9.5,5.3-1.3.3-2.5.4-3.8.5-.2,0-.4,0-.6,0-3.7,0-7.2-1-10.4-3h-.2c.5,0,1.1,0,1.6,0,1.8,0,3.6-.3,5.3-1,1.2-.5,2.3-1.1,3.3-1.9-3.6-.1-5.8-2.7-6.4-4.8.4,0,.9.1,1.3.1s1.1,0,1.7-.2h.1c-1.9-.5-3.4-1.5-4.4-3.2-.7-1.1-1-2.3-1-3.7,1,.5,2,.8,3.1.8-1.4-1-2.4-2.4-2.8-4.2-.4-1.8-.1-3.4.8-5,3.7,4.4,8.4,6.8,14.2,7.2,0-.3,0-.5-.1-.8-.2-1.6.2-3.1,1.1-4.5,1.1-1.7,2.7-2.8,4.7-3.1.4,0,.8-.1,1.3-.1,1.8,0,3.4.7,4.8,2,0,0,.2.1.3.1s0,0,.1,0c1.4-.3,2.8-.8,4-1.5h0c-.5,1.5-1.5,2.8-2.9,3.7,1.3-.1,2.6-.5,3.8-1Z"/>
    </g>
  </g>
</svg>