<?xml version="1.0" encoding="UTF-8"?>
<svg xmlns="http://www.w3.org/2000/svg" version="1.1" viewBox="0 0 40 40">
  <defs>
    <style>
      .cls-1 {
        fill: #fff;
      }
    </style>
  </defs>
  <!-- Generator: Adobe Illustrator 28.7.1, SVG Export Plug-In . SVG Version: 1.2.0 Build 142)  -->
  <g>
    <g id="Capa_1">
      <g>
        <path class="cls-1" d="M25,22.1c-.1,0-.3-.1-.4-.1-.4,0-.8.6-1.8,1.9-.2.2-.4.3-.6.3s-.2,0-.3,0c-2.6-1-4.5-2.7-5.9-5.1-.2-.4-.1-.7.1-1,.9-1,1.3-1.5,1.1-2.1-.4-1.1-.9-2.2-1.3-3.3-.1-.2-.3-.5-.5-.5-.3,0-.7-.1-1-.1s-.8,0-1.2.4c-1.9,1.8-2.1,4.3-.8,6.5,3.6,6.3,8.8,8.9,12.2,9,0,0,.2,0,.2,0,1.6,0,4-1.1,3.9-3.8,0-.4-.3-.5-3.7-2.1Z"/>
        <path class="cls-1" d="M36.8,16.7c-1.4-7.8-8.2-13.8-16.5-13.8s-2.6.1-4,.5C5.4,5.9,0,18,5.1,27.9c.1.3.2.7,0,1-.5,2.1-1.1,4.1-1.7,6.2-.2.6-.3,1.3-.5,2,.9-.2,3.9-1,8.4-2.2.1,0,.2,0,.3,0,.2,0,.5,0,.7.2,2.4,1.2,5,1.8,7.6,1.8s2,0,3-.3c9.3-1.6,15.5-10.5,13.9-19.9ZM22.2,33.9c-.8.1-1.6.2-2.3.2-2.5,0-4.9-.7-7.1-2-.3-.1-.5-.2-.8-.2s-.3,0-.4,0c-1.6.4-3.1.8-4.8,1.3.4-1.4.7-2.6,1.1-3.8.4-1,.2-1.8-.3-2.7-4.7-8.4.5-19.1,10-20.8.9-.2,1.7-.2,2.6-.2,6.9,0,12.9,5,13.9,12.1,1.1,7.7-4.2,14.9-11.9,16.1Z"/>
      </g>
    </g>
  </g>
</svg>