<svg xmlns="http://www.w3.org/2000/svg" width="94" height="94" viewBox="0 0 94 94" fill="none"><path d="M78.1422 70.5087C85.0352 63.5217 89.3 53.9357 89.3 43.3693c0-10.553-4.2544-20.1293-11.1327-27.1135C78.1192 16.1863 78.0666 16.1184 78.0048 16.0566 77.9512 16.003 77.8919 15.9599 77.8319 15.9165 70.84 8.98857 61.2276 4.70068 50.6299 4.70068c-10.5985.0-20.2116 4.28813-27.2036 11.21812C23.3681 15.9619 23.3097 16.0045 23.2571 16.0571 23.1968 16.1174 23.1451 16.1841 23.0983 16.2517c-6.8808 6.9852-11.1359 16.562-11.1359 27.1182.0 3.683.522599999999999 7.316 1.5406 10.8155-5.28839 3.3916-8.80227 9.3178-8.80227 16.0537.0 10.5107 8.55087 19.0624 19.06167 19.0624C30.4975 89.3015 36.4234 85.7878 39.8152 80.4999 43.3158 81.518 46.9479 82.0397 50.6307 82.0397c10.5828.0 20.1818-4.2762 27.1715-11.1876C77.8652 70.8071 77.9283 70.76 77.9846 70.7028 78.0448 70.6425 78.0956 70.5767 78.1424 70.51L78.1422 70.5087zM69.784 62.38C71.4122 57.1865 72.3813 51.2262 72.5101 44.8208H86.3587C86.0062 53.595 82.4812 61.563 76.8968 67.6088 74.7083 65.5785 72.321 63.8313 69.784 62.38zm-37.39-9.1297C31.9702 50.5092 31.7284 47.6846 31.6663 44.8208h17.513L49.1796 57.3401C45.7703 57.4661 42.4173 58.0396 39.1788 59.0423 37.4117 56.6163 35.087 54.6235 32.394 53.2503zM14.9045 41.917C15.257 33.1531 18.7734 25.1936 24.3452 19.151c2.1921 2.036 4.5807 3.7873 7.1226 5.2425-1.6215 5.185-2.5868 11.1336-2.7148 17.524L14.9045 41.917zM34.1032 25.7811c4.6746 2.2126 9.7823 3.4583 15.0768 3.653V41.9173H31.6576C31.7816 36.0695 32.6565 30.5822 34.1032 25.7811zm42.8154-6.6299c5.5715 6.0433 9.0891 14.0037 9.4408 22.7661H72.5108C72.3829 35.526 71.4185 29.5782 69.7961 24.3941 72.3379 22.9388 74.7265 21.1873 76.9186 19.1512zM69.6061 41.9173H52.0837V29.4341C57.3779 29.2394 62.4856 27.994 67.1605 25.7811 68.6072 30.5824 69.4812 36.0705 69.6061 41.9173zM52.0837 26.5295V7.72083C57.937 8.55924 63.0558 14.4089 66.2299 22.9974c-4.3756 2.1245-9.1697 3.3347-14.1462 3.5321zM49.1792 7.72083V26.5295C44.203 26.3321 39.4087 25.1222 35.033 22.9977c3.1743-8.5885 8.2924-14.43948 14.1462-15.27687zm0 52.52407V79.012C46.7427 78.6491 44.3468 77.3747 42.1451 75.2729 42.5852 73.6673 42.8247 71.9801 42.8247 70.2372 42.8247 67.1295 42.0726 64.1967 40.7483 61.6025c2.7401-.7849 5.5628-1.2428 8.4309-1.3576zm2.9045 18.7734V60.2504C57.0545 60.4478 61.844 61.6549 66.2166 63.7754 63.0423 72.3451 57.9297 78.1809 52.0837 79.0183zm0-21.6725V44.8211H69.6061C69.4809 50.6829 68.6021 56.1825 67.149 60.9938c-4.6719-2.2099-9.7755-3.4534-15.0653-3.648zm22.7809-40.25C72.9968 18.8197 70.9776 20.3255 68.8353 21.5966 66.8473 16.3626 64.1467 12.0791 60.9613 9.13138c5.2425 1.58592 9.978 4.34052 13.9033 7.96442zM32.4275 21.5966c-2.1423-1.2708-4.1615-2.7769-6.0283-4.5008 3.9255-3.6239 8.6613-6.3799 13.9026-7.9634-3.1857 2.947-5.8866 7.2303-7.8743 12.4642zM14.8988 44.8208H28.7623C28.8122 47.2434 28.9786 49.643 29.2785 51.9911 27.5319 51.4617 25.6809 51.1753 23.7645 51.1753c-2.7174.0-5.3024.575299999999999-7.6442 1.6055-.705-2.5898-1.1144-5.2563-1.2215-7.96zM23.763 86.3955c-8.9088.0-16.15777-7.2483-16.15777-16.1578.0-8.9089 7.24827-16.1579 16.15777-16.1579 8.9089.0 16.1579 7.2483 16.1579 16.1579C39.9209 79.1465 32.6735 86.3955 23.763 86.3955zM68.8219 65.1742C70.9605 66.4422 72.9767 67.9434 74.8417 69.6628 70.9202 73.2762 66.1914 76.0246 60.961 77.6058 64.1412 74.6655 66.8354 70.3932 68.8219 65.1742zM30.8358 74.3204C30.5668 74.7858 30.079 75.0471 29.5763 75.0471 29.33 75.0471 29.0809 74.9841 28.8514 74.8525l-5.8138-3.3567C22.5884 71.2363 22.3118 70.7568 22.3118 70.2381V61.0786C22.3118 60.2769 22.9623 59.6264 23.764 59.6264S25.2162 60.2769 25.2162 61.0786V69.3992l5.0883 2.9375C30.9982 72.7369 31.236 73.6255 30.8358 74.3204z" fill="#3b549a"/></svg>