<svg xmlns="http://www.w3.org/2000/svg" width="91" height="91" viewBox="0 0 91 91" fill="none"><path d="M85.1229 7.9624H5.49792c-.75833.0-1.32708.75834-1.32708 1.51667V51.1874C4.17084 51.9457 4.73959 52.7041 5.6875 52.7041h6.4458L15.5458 65.027C15.7354 65.5957 16.3042 66.1645 17.0625 65.9749c.189599999999999.0.379200000000001.0.5688.0L38.1063 58.3916l7.9624 16.1145v7.0146C46.0687 82.2791 46.6375 83.0374 47.5854 83.0374H74.1271C74.8854 83.0374 75.6438 82.4687 75.6438 81.5207V74.127l3.7916-16.8729V57.0645 52.7041h6.0667C86.2604 52.7041 87.0188 52.1353 87.0188 51.1874V9.47907C86.6396 8.72074 85.8812 7.9624 85.1229 7.9624zM7.01459 10.9957H15.5458L15.3563 11.3749C14.4083 15.3562 11.375 18.3895 7.58334 19.1478L7.01459 19.3374V10.9957zm0 38.675V41.1395L7.58334 41.5187C11.5646 42.277 14.5979 45.3103 15.3563 49.2916L15.5458 49.8603H7.01459V49.6707zM36.5896 53.2728C36.4 53.8416 36.4 54.4103 36.4 54.9791V55.1687L36.5896 55.5478 17.8208 62.5624 14.9771 52.5145H36.7792L36.5896 53.2728zm2.6542 1.3271C39.4333 52.7041 40.95 51.1874 42.8458 51.377 44.7417 51.5666 46.0688 53.0832 45.8792 54.9791V67.8707L39.2438 54.5999zm6.6354-17.6312v3.2229H45.5C42.8458 40.1916 40.3812 39.2437 38.4854 37.3478c-1.8958-1.8958-2.8437-4.3604-3.0333-7.0146C35.4521 27.6791 36.4 25.2145 38.2958 23.3187c1.8959-1.8959 4.3604-2.8438 7.0146-3.0334 4.55.0 8.7208 3.2229 9.6688 7.7729V28.2478L54.7896 28.4374C54.0312 29.1957 53.4625 30.3332 53.2729 31.4707V32.0395L52.7042 31.8499C52.1354 31.6603 51.5667 31.4707 50.9979 31.4707 48.1542 31.8499 45.8792 34.1249 45.8792 36.9687zM72.4208 80.0041H48.7229V75.2645H72.4208v4.7396zM76.2125 56.6853 72.8 72.4207H48.7229V36.9687c0-1.3271 1.1375-2.275 2.275-2.275 1.1375.0 2.275 1.1375 2.275 2.275V53.0832C53.2729 53.8416 53.8417 54.5999 54.7896 54.5999s1.5167-.5687 1.5167-1.5167V32.2291C56.3063 31.4707 56.6854 30.7124 57.2542 30.3332H57.4437 57.6333C58.0125 30.1437 58.3917 29.9541 58.7708 29.9541c1.3271.0 2.4646 1.1375 2.4646 2.275V53.0832C61.2354 53.8416 61.8042 54.5999 62.7521 54.5999 63.7 54.5999 64.2688 54.0312 64.2688 53.0832v-13.65c0-1.3271 1.1374-2.275 2.2749-2.275S68.8187 38.2957 68.8187 39.4332v13.65C68.8187 53.8416 69.3875 54.5999 70.3354 54.5999 71.2833 54.5999 71.8521 54.0312 71.8521 53.0832v-9.1c0-1.327 1.1375-2.275 2.27500000000001-2.275S76.4021 42.8457 76.4021 43.9832L76.2125 56.6853zM83.7958 49.6707H79.0563V43.4145L79.2458 43.2249C80.3833 42.277 81.7104 41.7082 83.2271 41.3291L83.7958 41.1395v8.5312zm0-11.1854H83.4167C81.5208 38.6749 79.8146 39.4332 78.2979 40.3811L77.7292 40.7603 77.5396 40.5707C76.2125 39.0541 73.9375 38.6749 72.0417 39.2437L71.4729 39.4332v-.5687C71.0938 36.0207 68.6292 33.9353 65.7854 34.3145 65.4062 34.3145 65.0271 34.5041 64.6479 34.5041L64.0792 34.6937V32.2291c0-2.8438-2.275-5.3084-5.3084-5.3084H57.8229L57.6333 26.5416C56.6854 23.3187 54.4104 20.4749 51.3771 18.9582 48.3438 17.252 44.9313 17.0624 41.7083 18.0103 38.4854 18.9582 35.6417 21.2332 34.125 24.2666 32.6083 27.2999 32.2292 30.7124 33.1771 33.9353c1.5167 5.3084 6.6354 9.1 12.3229 9.1H45.8792v6.6354L45.1208 49.2916C43.225 48.3437 41.1396 48.5332 39.4333 49.4812H39.2438 18.2V49.102C17.4417 43.6041 12.8917 39.0541 7.39375 38.2957H7.01459V21.9916h.37916C12.8917 21.2332 17.4417 16.8728 18.2 11.3749V10.9957H72.4208V11.3749C73.1792 16.8728 77.7292 21.4228 83.2271 22.1812H83.6062V38.4853H83.7958zm0-19.1479L83.2271 19.1478C79.2458 18.3895 76.2125 15.3562 75.4542 11.3749L75.2646 10.8062h8.5312v8.5312z" fill="#f05d5e"/></svg>