<svg xmlns="http://www.w3.org/2000/svg" width="84" height="65" viewBox="0 0 84 65" fill="none"><g clip-path="url(#clip0_14_50)"><path d="M57.6827 3.37553l-1.3051 1.255C55.5027 5.48161 55.474 6.89529 56.3059 7.74637L76.1406 28.5043C76.9868 29.3842 78.3923 29.413 79.2671 28.5764l1.3768-1.3127C81.5188 26.4126 81.5474 24.9989 80.7156 24.119L60.8809 3.34668C59.9774 2.4379 58.6292 2.4379 57.7544 3.24571 57.7544 3.30341 57.7113 3.34668 57.6827 3.37553zM54.5275 2.69755l1.3481-1.31269C57.8261-.504847 60.8522-.447146 62.8027 1.48583L82.6374 22.2726C84.5162 24.2344 84.4588 27.3502 82.5083 29.2399 81.0025 30.6969 79.9842 31.9807 77.6608 31.9086 76.5565 31.8797 75.4378 31.5047 74.563 30.7257l-7.5295 7.8041L67.263 38.7317C71.3934 42.8862 67.1626 48.6707 62.5589 48.4687 62.6306 51.8875 59.3033 54.888 55.8039 54.3542 55.6748 58.1048 51.5013 61.0475 47.6721 59.6916 46.8259 63.6441 41.6485 66.832 38.4216 63.7883 26.4605 52.0318 18.7877 43.7084 8.73406 31.2306 6.88396 32.3414 4.4602 32.1106 2.85391 30.5526 1.34802 29.1101.0285758 28.1292-107837e-9 25.7923-.0287915 24.5373.430147 23.2535 1.37671 22.3158L21.2114 1.55796c1.8501-1.961831 4.9766-2.033957 6.9271-.12983 1.4772 1.45695 2.8254 2.43786 2.8541 4.76032C31.0212 7.06839 30.7918 7.94833 30.3472 8.72729l.9465.64913 7.3 1.55788c1.8214-1.08184 12.6065-.1731 15.4318-1.6877C52.534 7.22707 52.7347 4.42857 54.5275 2.69755zM72.6412 28.7639 55.8613 11.1796c-1.9505 1.4858-7.3287 1.6156-11.5022 1.7598C42.2078 13.0116 40.3864 13.0404 40.0566 13.1414L32.6275 20.5415c-1.5489 1.558 1.678 6.8953 8.3039 2.5677 4.6324-3.0437 8.5334-1.7599 12.7356 2.3658L65.0974 36.6689l7.5438-7.905zM49.307 37.044C48.0593 35.789 49.9811 33.8704 51.1858 35.1543l9.7525 9.838C63.362 47.4301 68.0948 43.4776 65.2695 40.6647L51.7165 27.4079c-3.3273-3.2456-5.9089-4.3275-9.3796-2.0339-9.5803 6.2894-15.5608-3.1159-11.5595-6.8231l5.4499-5.4095-5.7511-1.2117C29.9743 11.8287 29.0707 11.1219 28.5258 10.7468L10.7276 29.413c4.575 5.6836 8.7054 10.5449 13.1801 15.5216 4.7328 5.2363 9.8815 10.5448 16.364 16.9063C41.6198 63.0959 43.9719 61.538 44.775 59.807 45.2483 58.7539 45.1049 58.0471 44.4739 57.3114l-8.7055-9.6072C34.5923 46.3915 36.5715 44.5595 37.7475 45.8722l8.7055 9.5639C46.6251 55.6092 46.7829 55.8112 46.955 56.0131c1.1473 1.2117 2.4524 1.457 3.5568 1.1829C52.4909 56.6478 54.1116 54.3254 52.2615 52.4357L42.9106 42.2226C41.7346 40.9099 43.6851 39.0779 44.8898 40.3906l9.2791 10.1409c3.2269 3.2457 7.3287-1.2117 4.9049-3.6495L49.307 37.044zM27.5935 4.63053l-1.3768-1.3127C25.3419 2.46675 23.9364 2.51002 23.0902 3.38996L3.25548 24.1334C2.40932 25.0133 2.45234 26.427 3.32719 27.2781l1.37682 1.3127C5.60754 29.4707 6.95567 29.4419 7.9596 28.36L27.3641 8.0493C27.866 7.50114 28.2676 7.09724 28.2676 6.1596 28.2676 5.61144 28.0381 5.06328 27.5935 4.63053z" fill="#00bad2"/></g><defs><clipPath id="clip0_14_50"><rect width="84" height="65" fill="#fff"/></clipPath></defs></svg>