<svg xmlns="http://www.w3.org/2000/svg" width="72" height="72" viewBox="0 0 72 72" fill="none"><g clip-path="url(#clip0_15_131)"><mask id="path-1-inside-1_15_131" fill="#fff"><path d="M66.9791 20.4733C66.6565 20.6206 66.4049 20.8888 66.2785 21.2199 66.1521 21.5511 66.1612 21.9186 66.3037 22.2431 69.6546 29.5902 70.2401 37.8986 67.9526 45.6424 65.665 53.3862 60.6581 60.0455 53.8512 64.3973c-6.8068 4.3518-14.9566 6.104-22.9526 4.9348S15.5973 64.1507 10.3241 58.0325c-5.27311-6.1183-8.16-13.9318-8.13048-22.0058C2.22315 27.9528 5.16712 20.1605 10.4849 14.0809 15.8026 8.00132 23.1371 4.04262 31.1414 2.93181c8.0044-1.11081 16.1411.70083 22.9159 5.10224L52.5281 9.5619C52.281 9.80897 52.1394 10.1421 52.1331 10.4913v7.4101L50.948 19.0728c-3.8877-3.4428-8.8392-5.4497-14.0287-5.686-5.1895-.2363-10.3033 1.3122-14.4882 4.3873-4.185 3.0751-7.1882 7.4909-8.5086 12.5107C12.602 35.3046 13.0441 40.6251 15.175 45.3586 17.3059 50.0922 20.9968 53.9526 25.6321 56.2961 30.2673 58.6396 35.5666 59.3244 40.6461 58.2363c5.0794-1.0881 9.6319-3.8834 12.8981-7.9195C56.8103 46.2807 58.5927 41.2477 58.594 36.0574 58.6093 32.558 57.8017 29.104 56.2364 25.9736 56.1578 25.8172 56.0491 25.6779 55.9165 25.5636 55.784 25.4492 55.6302 25.362 55.4639 25.3071 55.2977 25.2521 55.1222 25.2304 54.9476 25.2431 54.7729 25.2559 54.6025 25.3029 54.446 25.3815 54.2895 25.4601 54.1501 25.5687 54.0356 25.7011 53.9212 25.8336 53.8339 25.9872 53.7789 26.1533 53.7239 26.3195 53.7021 26.4948 53.7149 26.6693 53.7277 26.8438 53.7748 27.0141 53.8534 27.1704c2.2605 4.4995 2.7641 9.6784 1.4128 14.5285-1.3512 4.85-4.4607 9.0241-8.7229 11.7095s-9.3721 3.69-14.3349 2.8181C27.2456 55.3546 22.7852 52.6686 19.6956 48.6916c-3.0897-3.977-4.5874-8.9605-4.2016-13.9802.3858-5.0197 2.6275-9.7163 6.2887-13.1754 3.6611-3.4592 8.4797-5.4332 13.5175-5.5379C40.338 15.8935 45.2346 17.6658 49.0364 20.9699l-7.646 7.6392c-1.6965-1.2409-3.7625-1.8736-5.8636-1.7958C33.4257 26.8911 31.4123 27.6749 29.8124 29.0379c-1.6 1.3629-2.6929 3.2253-3.102 5.2859C26.3013 36.3843 26.6 38.5225 27.5582 40.3924 28.5163 42.2623 30.0779 43.7546 31.9902 44.6278 33.9025 45.5009 36.0537 45.704 38.0959 45.204 40.138 44.7041 41.9516 43.5304 43.2433 41.8728c1.2916-1.6575 1.9858-3.702 1.9701-5.8027C45.2168 35.7223 45.0818 35.3874 44.838 35.1391S44.2617 34.7494 43.9136 34.746C43.5655 34.7426 43.2303 34.8775 42.9818 35.1211 42.7332 35.3646 42.5917 35.6969 42.5883 36.0447c0 1.322-.392399999999995 2.6143-1.1275 3.7136C40.7257 40.8575 39.6808 41.7143 38.4583 42.2202 37.2358 42.7261 35.8906 42.8585 34.5928 42.6006 33.295 42.3427 32.103 41.706 31.1673 40.7712 30.2317 39.8364 29.5945 38.6453 29.3363 37.3487 29.0782 36.0521 29.2107 34.7081 29.717 33.4867 30.2234 32.2653 31.0809 31.2213 32.1811 30.4868 33.2813 29.7523 34.5748 29.3603 35.898 29.3603 37.2097 29.3625 38.4928 29.7427 39.5936 30.4553l-4.6513 4.6981C34.8129 35.2726 34.7097 35.4173 34.6391 35.5784 34.5685 35.7395 34.532 35.9134 34.532 36.0892 34.532 36.2651 34.5685 36.439 34.6391 36.6 34.7097 36.7611 34.8129 36.9058 34.9423 37.025 35.0611 37.153 35.205 37.2553 35.365 37.3253 35.5251 37.3954 35.6978 37.4319 35.8726 37.4325 36.0494 37.4337 36.2246 37.398 36.387 37.3279 36.5493 37.2578 36.6953 37.1546 36.8156 37.025L51.9164 21.9248l2.1409-2.0881h7.4039C61.8161 19.8263 62.1536 19.6805 62.4042 19.4293l9.2517-9.2435C71.839 9.99965 71.9604 9.76183 72.0037 9.50449 72.047 9.24716 72.0101 8.98275 71.898 8.74705 71.8028 8.49065 71.6274 8.27172 71.3979 8.12266 71.1684 7.97361 70.8969 7.90236 70.6237 7.91946H64.0609V1.33697C64.0649 1.06657 63.9882.801098 63.8407.57436S63.4815.169876 63.2326.0637569C62.9879-.0373917 62.7177-.059864 62.4596-537679e-9 62.2016.0587886 61.9684.196967 61.7925.394792L55.9816 6.13697C48.7677 1.31404 40.0518-.740343 31.441.352658 22.8303 1.44566 14.9054 5.61233 9.1278 12.0843 3.35019 18.5563.109457 26.8972.00321608 35.5688-.103025 44.2405 2.93239 52.6581 8.54971 59.2694 14.167 65.8808 21.9874 70.24 30.5688 71.5433 39.1502 72.8465 47.9139 71.0059 55.2437 66.3609c7.3299-4.6451 12.7317-11.7813 15.2092-20.0928C72.9305 37.9566 72.3168 29.0303 68.7249 21.1354 68.5752 20.8217 68.3102 20.5777 67.985 20.4544 67.6597 20.3311 67.2994 20.3378 66.9791 20.4733zM60.875 17.163H56.708l6.5755-6.5825H67.4633L60.875 17.163zM61.3848 8.68339 54.8092 15.2659V11.0898l6.5756-6.56981v4.1634z"/></mask><path d="M66.9791 20.4733C66.6565 20.6206 66.4049 20.8888 66.2785 21.2199 66.1521 21.5511 66.1612 21.9186 66.3037 22.2431 69.6546 29.5902 70.2401 37.8986 67.9526 45.6424 65.665 53.3862 60.6581 60.0455 53.8512 64.3973c-6.8068 4.3518-14.9566 6.104-22.9526 4.9348S15.5973 64.1507 10.3241 58.0325c-5.27311-6.1183-8.16-13.9318-8.13048-22.0058C2.22315 27.9528 5.16712 20.1605 10.4849 14.0809 15.8026 8.00132 23.1371 4.04262 31.1414 2.93181c8.0044-1.11081 16.1411.70083 22.9159 5.10224L52.5281 9.5619C52.281 9.80897 52.1394 10.1421 52.1331 10.4913v7.4101L50.948 19.0728c-3.8877-3.4428-8.8392-5.4497-14.0287-5.686-5.1895-.2363-10.3033 1.3122-14.4882 4.3873-4.185 3.0751-7.1882 7.4909-8.5086 12.5107C12.602 35.3046 13.0441 40.6251 15.175 45.3586 17.3059 50.0922 20.9968 53.9526 25.6321 56.2961 30.2673 58.6396 35.5666 59.3244 40.6461 58.2363c5.0794-1.0881 9.6319-3.8834 12.8981-7.9195C56.8103 46.2807 58.5927 41.2477 58.594 36.0574 58.6093 32.558 57.8017 29.104 56.2364 25.9736 56.1578 25.8172 56.0491 25.6779 55.9165 25.5636 55.784 25.4492 55.6302 25.362 55.4639 25.3071 55.2977 25.2521 55.1222 25.2304 54.9476 25.2431 54.7729 25.2559 54.6025 25.3029 54.446 25.3815 54.2895 25.4601 54.1501 25.5687 54.0356 25.7011 53.9212 25.8336 53.8339 25.9872 53.7789 26.1533 53.7239 26.3195 53.7021 26.4948 53.7149 26.6693 53.7277 26.8438 53.7748 27.0141 53.8534 27.1704c2.2605 4.4995 2.7641 9.6784 1.4128 14.5285-1.3512 4.85-4.4607 9.0241-8.7229 11.7095s-9.3721 3.69-14.3349 2.8181C27.2456 55.3546 22.7852 52.6686 19.6956 48.6916c-3.0897-3.977-4.5874-8.9605-4.2016-13.9802.3858-5.0197 2.6275-9.7163 6.2887-13.1754 3.6611-3.4592 8.4797-5.4332 13.5175-5.5379C40.338 15.8935 45.2346 17.6658 49.0364 20.9699l-7.646 7.6392c-1.6965-1.2409-3.7625-1.8736-5.8636-1.7958C33.4257 26.8911 31.4123 27.6749 29.8124 29.0379c-1.6 1.3629-2.6929 3.2253-3.102 5.2859C26.3013 36.3843 26.6 38.5225 27.5582 40.3924 28.5163 42.2623 30.0779 43.7546 31.9902 44.6278 33.9025 45.5009 36.0537 45.704 38.0959 45.204 40.138 44.7041 41.9516 43.5304 43.2433 41.8728c1.2916-1.6575 1.9858-3.702 1.9701-5.8027C45.2168 35.7223 45.0818 35.3874 44.838 35.1391S44.2617 34.7494 43.9136 34.746C43.5655 34.7426 43.2303 34.8775 42.9818 35.1211 42.7332 35.3646 42.5917 35.6969 42.5883 36.0447c0 1.322-.392399999999995 2.6143-1.1275 3.7136C40.7257 40.8575 39.6808 41.7143 38.4583 42.2202 37.2358 42.7261 35.8906 42.8585 34.5928 42.6006 33.295 42.3427 32.103 41.706 31.1673 40.7712 30.2317 39.8364 29.5945 38.6453 29.3363 37.3487 29.0782 36.0521 29.2107 34.7081 29.717 33.4867 30.2234 32.2653 31.0809 31.2213 32.1811 30.4868 33.2813 29.7523 34.5748 29.3603 35.898 29.3603 37.2097 29.3625 38.4928 29.7427 39.5936 30.4553l-4.6513 4.6981C34.8129 35.2726 34.7097 35.4173 34.6391 35.5784 34.5685 35.7395 34.532 35.9134 34.532 36.0892 34.532 36.2651 34.5685 36.439 34.6391 36.6 34.7097 36.7611 34.8129 36.9058 34.9423 37.025 35.0611 37.153 35.205 37.2553 35.365 37.3253 35.5251 37.3954 35.6978 37.4319 35.8726 37.4325 36.0494 37.4337 36.2246 37.398 36.387 37.3279 36.5493 37.2578 36.6953 37.1546 36.8156 37.025L51.9164 21.9248l2.1409-2.0881h7.4039C61.8161 19.8263 62.1536 19.6805 62.4042 19.4293l9.2517-9.2435C71.839 9.99965 71.9604 9.76183 72.0037 9.50449 72.047 9.24716 72.0101 8.98275 71.898 8.74705 71.8028 8.49065 71.6274 8.27172 71.3979 8.12266 71.1684 7.97361 70.8969 7.90236 70.6237 7.91946H64.0609V1.33697C64.0649 1.06657 63.9882.801098 63.8407.57436S63.4815.169876 63.2326.0637569C62.9879-.0373917 62.7177-.059864 62.4596-537679e-9 62.2016.0587886 61.9684.196967 61.7925.394792L55.9816 6.13697C48.7677 1.31404 40.0518-.740343 31.441.352658 22.8303 1.44566 14.9054 5.61233 9.1278 12.0843 3.35019 18.5563.109457 26.8972.00321608 35.5688-.103025 44.2405 2.93239 52.6581 8.54971 59.2694 14.167 65.8808 21.9874 70.24 30.5688 71.5433 39.1502 72.8465 47.9139 71.0059 55.2437 66.3609c7.3299-4.6451 12.7317-11.7813 15.2092-20.0928C72.9305 37.9566 72.3168 29.0303 68.7249 21.1354 68.5752 20.8217 68.3102 20.5777 67.985 20.4544 67.6597 20.3311 67.2994 20.3378 66.9791 20.4733zM60.875 17.163H56.708l6.5755-6.5825H67.4633L60.875 17.163zM61.3848 8.68339 54.8092 15.2659V11.0898l6.5756-6.56981v4.1634z" fill="#ec7625" stroke="#ec7625" stroke-width="4" mask="url(#path-1-inside-1_15_131)"/></g><defs><clipPath id="clip0_15_131"><rect width="72" height="72" fill="#fff"/></clipPath></defs></svg>