<svg xmlns="http://www.w3.org/2000/svg" width="117" height="69" viewBox="0 0 117 69" fill="none"><path d="M20.9321 31.643 1.90717 24.2858 1.90861 24.2843 1.73394 24.218C1.0579 23.9614.62561 23.3267.62561 22.6097.62561 21.8924 1.05788 21.258 1.73401 21.0009L1.73463 21.0007 55.1796.353454C55.18.353327 55.1803.353201 55.1807.353074 55.5869.204253 56.0196.204238 56.4264.353093 56.4268.353218 56.4271.353344 56.4274.35347L109.862 21.0057 109.877 21.0205 109.902 21.03C110.178 21.1353 110.407 21.3346 110.601 21.5837 110.641 21.6377 110.668 21.6774 110.709 21.7463L110.711 21.7488C110.876 22.0103 110.981 22.2918 110.981 22.6101L110.982 41.7211V41.814L111.071 41.8408C113.718 42.6375 115.651 45.0562 115.651 47.9416 115.651 49.6907 114.94 51.2691 113.802 52.4214L113.756 52.4677 113.768 52.5317l2.595 14.207C116.363 66.7392 116.363 66.7397 116.363 66.7402 116.444 67.257 116.308 67.7708 115.984 68.1623 115.659 68.5541 115.173 68.7839 114.659 68.7839H103.842C103.328 68.7839 102.841 68.5541 102.517 68.1623L102.515 68.1604C102.178 67.7692 102.043 67.2425 102.138 66.7424V66.7417l2.595-14.1955L104.745 52.4827 104.7 52.4364C103.561 51.2687 102.85 49.6904 102.85 47.9415 102.85 45.0559 104.798 42.6234 107.43 41.8408L107.519 41.8142V41.721 25.3215 25.1392L107.349 25.2049 90.6742 31.643 90.5942 31.6739V31.7596 53.9591C90.5942 54.5797 90.257 55.1478 89.7147 55.46 78.45 61.8016 67.1322 64.9701 55.8031 64.9701 44.4739 64.9701 33.1411 61.8015 21.891 55.4597L21.8898 55.4591C21.3506 55.1625 21.012 54.5814 21.012 53.9591V31.7596 31.6739L20.9321 31.643zM105.937 65.1595 105.91 65.307H106.06h6.38H112.59L112.563 65.1595l-1.986-10.8604L110.554 54.1758 110.431 54.1987C110.045 54.2702 109.662 54.3127 109.25 54.3127 108.853 54.3127 108.454 54.2702 108.069 54.1987L107.946 54.1758 107.924 54.2991 105.937 65.1595zM87.0668 52.9809 87.1319 52.9454V52.8712L87.1318 33.1947V33.0124L86.9617 33.0781l-30.537 11.803L56.4234 44.8816C56.2199 44.9629 56.0185 45.003 55.8028 45.003 55.5876 45.003 55.3857 44.9629 55.1822 44.8816L55.1809 44.8811 24.6294 33.0781 24.4594 33.0124V33.1947 52.8712 52.9454L24.5244 52.9809c20.7579 11.3448 41.7846 11.3448 62.5424.0zM55.8335 3.83164 55.7884 3.81423 55.7433 3.83164 7.44384 22.4929 7.14229 22.6094 7.44378 22.7261 55.7433 41.4166 55.7884 41.434 55.8335 41.4166l43.5145-16.82L99.3029 24.355H55.7884C54.828 24.355 54.0575 23.5845 54.0575 22.6241S54.828 20.8932 55.7884 20.8932H99.3029L99.348 20.6516 55.8335 3.83164zM109.235 50.8651c1.621.0 2.938-1.3176 2.938-2.9381.0-1.6206-1.31700000000001-2.9381-2.938-2.9381-1.62.0-2.938 1.3175-2.938 2.9381.0 1.6205 1.318 2.9381 2.938 2.9381z" fill="#008da8" stroke="#fff" stroke-width=".25"/></svg>