<svg width="216" height="216" viewBox="0 0 216 216" fill="none" xmlns="http://www.w3.org/2000/svg">
<g clip-path="url(#clip0_654_7903)">
<path d="M141.517 90.1842C141.944 92.9648 143.839 95.2157 146.348 95.9307C146.722 96.0367 147.069 96.0896 147.389 96.0896C148.323 96.0896 148.964 95.6659 149.364 95.2687C150.192 94.3948 150.565 93.0972 150.352 91.6937C150.112 89.9459 149.044 88.3305 147.549 87.4831C147.309 87.3507 147.069 87.2183 146.855 87.0594C146.535 86.874 146.215 86.6621 145.868 86.4768C143.999 85.4175 142.878 86.3444 142.371 86.9799C141.704 87.8803 141.357 89.072 141.517 90.1842Z" fill="#ED1C28"/>
<path d="M138.422 97.0696C138.689 98.8968 139.943 100.38 141.598 100.83C141.838 100.909 142.078 100.936 142.292 100.936C142.906 100.936 143.333 100.671 143.573 100.406C144.133 99.8237 144.347 98.9763 144.213 98.0494C144.053 96.9107 143.333 95.8249 142.372 95.2688C142.212 95.1894 142.051 95.0834 141.918 95.004C141.705 94.8716 141.491 94.7392 141.277 94.6333C140.05 93.9447 139.302 94.5538 138.982 94.951C138.528 95.5601 138.315 96.3546 138.422 97.0696Z" fill="#6CB74D"/>
<path d="M188.919 115.977C188.866 115.66 188.786 115.342 188.572 115.13C187.825 114.441 187.398 115.183 186.918 115.66C186.437 116.11 185.957 116.56 185.45 116.984C184.569 117.725 183.608 118.361 182.567 118.917C181.286 119.579 179.818 120.162 178.35 119.976C177.603 119.87 176.855 119.685 176.135 119.394C176.028 119.341 175.894 119.288 175.761 119.235C175.734 116.692 175.174 114.097 174.507 111.714C173.599 108.086 172.825 106.762 172.531 105.517C172.398 104.935 172.051 104.14 172.131 103.531C172.185 103.213 172.425 103.054 172.585 102.79C173.172 101.863 172.798 100.433 171.811 99.956C169.542 98.8702 168.234 100.75 167.273 102.578C166.846 103.425 163.003 112.323 161.055 115.924C160.975 116.057 160.868 116.189 160.788 116.322L160.681 116.507C159.453 118.493 158.279 119.976 156.944 121.168C155.77 122.201 154.596 122.942 153.341 123.366C152.3 123.737 151.152 123.869 149.845 123.79C149.204 123.763 148.724 123.498 148.27 123.022C147.309 121.989 146.722 120.877 146.482 119.632C146.215 118.308 146.322 117.01 146.482 115.924C146.482 115.871 146.508 115.792 146.535 115.739L146.882 115.898C147.416 116.136 147.923 116.375 148.43 116.586C150.699 117.593 152.834 117.513 154.756 116.375C157.211 114.945 158.759 112.773 159.373 109.966C159.613 108.907 159.587 107.874 159.32 106.894C158.973 105.65 158.225 104.484 157.265 103.61C156.17 102.631 154.782 102.022 153.314 101.81C151.766 101.571 150.325 101.783 148.911 102.445C147.549 103.081 146.348 103.981 145.201 105.252C143.706 106.894 142.532 108.827 141.651 111.158C141.117 112.561 140.823 113.912 140.717 115.289C140.636 116.745 140.77 118.069 141.144 119.288C140.85 119.817 140.53 120.347 140.209 120.797C139.569 121.671 138.902 122.386 138.181 122.942C137.567 123.419 136.873 123.684 136.046 123.816C135.565 123.895 135.405 123.816 135.085 123.313C134.898 123.022 134.791 122.783 134.765 122.598C134.685 122.068 134.631 121.433 134.685 120.85C134.791 119.473 135.218 118.202 135.806 116.719C136.179 115.766 136.606 114.812 137.007 113.859C137.327 113.091 137.674 112.323 137.967 111.528C138.074 111.237 138.181 110.972 138.288 110.708C138.421 110.363 138.581 110.019 138.715 109.701C139.088 108.827 139.355 108.059 139.596 107.318C139.943 106.259 140.023 105.173 139.836 104.034C139.702 103.266 139.435 102.498 138.928 101.889C138.715 101.624 138.394 101.307 138.074 101.174C137.727 101.015 137.113 100.989 136.766 101.174C136.419 101.333 136.206 101.783 136.046 102.127L135.939 102.313C134.658 104.643 133.617 106.974 132.709 109.278C131.775 111.449 130.975 113.621 130.334 115.845C130.094 116.692 129.88 117.672 129.747 118.784C129.64 119.552 129.64 120.267 129.72 120.929C129.16 121.671 128.599 122.307 127.985 122.81C127.398 123.286 126.731 123.578 125.903 123.684C125.61 123.71 125.396 123.604 125.156 123.339C124.542 122.624 124.249 121.83 124.275 120.824C124.302 119.685 124.489 118.626 124.862 117.699C125.37 116.401 125.93 115.051 126.571 113.541C126.864 112.853 127.158 112.191 127.478 111.528C127.852 110.708 128.225 109.887 128.572 109.066C128.839 108.457 128.999 107.848 129.08 107.238C129.24 105.994 128.866 104.776 127.985 103.796C127.985 103.769 127.959 103.769 127.932 103.743C127.878 103.69 126.811 102.392 125.396 102.074C125.343 102.074 125.316 102.048 125.236 102.048C125.129 102.022 124.996 101.995 124.862 101.995C124.836 101.995 124.809 101.995 124.809 101.995C124.088 101.969 123.475 102.18 122.941 102.419C121.766 102.948 120.806 103.663 119.978 104.352L121.446 101.518C122.3 99.85 123.181 98.1552 124.035 96.4869C124.062 96.4339 124.088 96.3809 124.115 96.328C124.222 96.1426 124.302 95.9572 124.409 95.7718C124.889 94.7391 125.129 93.7592 125.263 92.7265C125.37 91.932 125.476 90.8992 125.209 89.787C125.023 88.966 124.676 88.304 124.169 87.7214C123.928 87.4566 123.635 87.2977 123.314 87.2977C123.021 87.2712 122.781 87.3771 122.594 87.589C122.3 87.8803 122.033 88.1981 121.846 88.5423L121.526 89.0455C121.046 89.8135 120.565 90.6079 120.112 91.4288C120.058 91.5613 119.978 91.6672 119.925 91.7996C119.871 91.9055 119.791 92.0114 119.738 92.1174C116.482 98.1287 113.439 104.564 110.663 111.317C109.836 113.356 109.088 115.474 108.341 117.593C108.261 117.831 108.181 118.069 108.128 118.334C107.167 119.632 106.179 120.665 105.085 121.539C104.017 122.386 102.923 122.995 101.775 123.366C100.734 123.71 99.64 123.842 98.4657 123.79C97.8251 123.763 97.318 123.525 96.8642 123.022C96.0368 122.095 95.503 121.115 95.2628 119.976C94.9425 118.467 94.9692 116.904 95.3696 115.183C96.1169 111.952 97.665 109.092 99.9336 106.709C100.307 106.312 100.761 105.914 101.295 105.517C101.562 105.305 101.909 105.146 102.336 105.014C102.469 104.961 102.576 104.987 102.656 105.04C102.736 105.093 102.79 105.226 102.79 105.385C102.79 105.861 102.656 106.312 102.576 106.682C102.469 107.053 102.336 107.45 102.229 107.821C102.096 108.218 101.962 108.589 101.855 108.986C101.588 109.966 101.508 110.787 101.615 111.608C101.855 113.568 103.003 114.786 105.218 115.395C105.432 115.448 105.619 115.368 105.725 115.183L105.832 114.998C105.912 114.865 105.992 114.759 106.019 114.6L106.286 113.806C106.66 112.694 107.033 111.608 107.354 110.469C107.54 109.834 107.647 109.172 107.754 108.536L107.781 108.404C107.914 107.477 107.701 106.55 107.06 105.597C106.499 104.696 105.806 103.849 104.951 103.187C103.884 102.366 102.603 101.863 101.268 101.757C100.227 101.677 99.2664 101.889 98.3055 102.207C97.9319 102.339 97.5849 102.472 97.2379 102.657C96.5173 103.001 95.85 103.478 95.2361 103.981C92.3002 106.47 90.3518 109.728 89.4977 113.726C89.4176 114.071 89.3642 114.441 89.3376 114.786C89.2575 115.633 89.2575 116.401 89.3376 117.169C89.3376 117.196 89.3109 117.222 89.3109 117.222C89.2842 117.301 89.2575 117.354 89.2308 117.434C88.6703 118.864 88.0831 120.241 87.2023 121.433C86.7486 122.042 86.1881 122.651 85.5208 123.286C85.0671 123.71 84.4532 123.948 83.6792 124.001C83.3055 124.054 82.9852 123.895 82.6916 123.525C82.2646 122.969 81.971 122.412 81.8642 121.83C81.624 120.691 81.6774 119.526 82.0244 118.281C82.3714 117.063 82.8518 115.951 83.4657 114.971C84.1596 113.859 84.9069 112.747 85.6543 111.687L86.4817 110.469C86.5617 110.337 86.6685 110.204 86.7753 110.072C86.9087 109.913 87.0155 109.728 87.1489 109.569C87.6294 108.827 87.7094 107.953 87.3892 106.974C87.2824 106.629 87.1489 106.312 86.9621 105.941C86.802 105.597 86.5884 105.358 86.3482 105.12C86.2948 105.067 86.2415 104.987 86.1881 104.935C86.108 104.829 86.0279 104.723 85.9479 104.643L85.0938 103.769C84.3464 103.001 83.3055 103.531 82.9319 103.849C82.665 104.008 82.4247 104.167 82.1845 104.325C81.971 104.458 81.7842 104.59 81.5706 104.723C80.5564 105.358 79.5689 105.782 78.5813 106.047L78.4212 106.1C78.2343 106.153 78.1276 106.206 77.9941 106.179C78.0475 105.914 78.1009 105.65 78.1276 105.385L78.2077 104.749C78.2877 104.034 78.3678 103.293 78.3945 102.445C78.3945 101.916 78.4212 101.254 78.0475 100.724C77.8607 100.459 77.5938 100.274 77.3536 100.115C77.0333 99.903 76.6863 99.6911 76.2059 99.6647C75.7788 99.6911 75.3785 99.85 75.1383 99.9824C74.818 100.141 74.5778 100.38 74.3642 100.592C73.2432 101.704 72.4692 103.001 72.0689 104.458C71.9354 104.908 71.8553 105.411 71.8553 105.941C71.8287 107.106 72.2023 108.033 73.0297 108.748C73.0831 108.774 73.1098 108.827 73.1632 108.907L73.0564 109.119C72.923 109.357 72.8162 109.569 72.6827 109.781L71.6952 111.449C71.0013 112.641 70.3073 113.832 69.6134 115.024C68.9461 116.216 68.2521 117.46 67.6383 118.784C67.2646 119.579 66.9977 120.479 66.7575 121.512C66.4906 122.81 66.624 124.028 67.1845 125.167C67.4247 125.67 67.7717 126.146 68.1454 126.57C68.4924 126.994 68.8126 127.391 69.3464 127.523C69.8002 127.629 70.2005 127.497 70.2806 127.02C70.3073 126.782 70.3607 126.57 70.4141 126.332C70.6543 124.902 70.9212 123.525 71.3749 122.148C71.7753 120.903 72.2824 119.685 72.8162 118.493C73.5635 116.825 74.3376 115.156 75.1116 113.515C75.6454 112.376 76.1792 111.264 76.6863 110.125C76.8464 109.781 77.0066 109.675 77.3803 109.648C78.8749 109.569 80.3696 109.198 81.8642 108.483C80.7166 110.098 79.4087 112.032 78.4212 114.203C77.7272 115.713 77.3536 116.931 77.2201 118.175C77.06 119.579 77.1934 120.85 77.6738 122.068C78.0742 123.127 78.6881 123.922 79.4888 124.531C81.4105 125.987 83.3856 126.491 85.3073 126.04C88.003 125.405 89.8714 123.922 90.8856 121.671C91.4461 122.545 92.0867 123.26 92.8874 123.816C94.9692 125.299 97.1845 126.04 99.5333 126.04C99.8803 126.04 100.227 126.014 100.574 125.987C102.069 125.855 103.51 125.484 104.818 124.928C105.966 124.425 107.007 123.842 107.887 123.18C107.994 123.684 108.128 124.134 108.314 124.478C108.608 125.034 108.955 125.59 109.462 125.961C109.916 126.279 110.583 126.252 110.85 125.696C111.01 125.378 111.117 125.034 111.197 124.716C112.158 121.38 113.492 117.54 115.094 114.23C116.695 110.999 119.151 108.298 122.434 106.206C122.754 105.994 123.074 105.782 123.421 105.65C123.528 105.597 123.795 105.491 123.902 105.57C124.088 105.702 123.848 106.259 123.768 106.444C123.581 106.868 123.394 107.265 123.208 107.662C123.021 108.059 122.834 108.43 122.674 108.827L122.273 109.754C121.606 111.264 120.939 112.8 120.298 114.362C119.738 115.766 119.391 117.275 119.284 118.837C119.204 120.135 119.338 121.274 119.711 122.333C120.085 123.419 120.752 124.24 121.74 124.822C123.074 125.617 124.409 126.04 125.717 126.04C126.197 126.04 126.677 125.987 127.158 125.882C128.679 125.537 129.987 124.902 131.081 124.054C131.295 124.319 131.535 124.557 131.829 124.743C133.163 125.67 134.524 126.146 135.859 126.146C136.152 126.146 136.419 126.12 136.713 126.093C139.382 125.696 141.464 124.505 142.932 122.598C143.306 123.074 143.733 123.498 144.213 123.869C146.215 125.352 148.323 126.12 150.485 126.173C150.619 126.173 150.725 126.173 150.859 126.173C152.754 126.173 154.622 125.776 156.437 124.981C157.825 124.372 159.026 123.578 160.094 122.624V122.651C161.535 121.565 162.576 120.162 163.483 118.626C164.685 116.586 165.859 114.521 167.033 112.482C167.487 111.687 167.994 110.893 168.475 110.098C169.275 112.111 170.556 115.58 170.61 117.487C170.183 117.434 169.756 117.407 169.302 117.407C168.555 117.434 167.887 117.619 167.3 117.858C165.298 118.573 163.83 120.479 163.83 122.73C163.83 124.187 164.444 125.484 165.405 126.438C165.992 127.1 166.793 127.603 167.861 127.815C168.234 127.894 168.635 127.921 169.035 127.921C169.062 127.921 169.062 127.921 169.088 127.921C169.302 127.921 169.462 127.894 169.569 127.868C170.503 127.788 171.437 127.576 172.238 127.179C173.919 126.332 174.88 124.796 175.387 123.074C175.467 122.81 175.521 122.518 175.574 122.227C177.549 122.73 179.711 122.624 181.66 122.227C184.569 121.592 186.838 120.373 188.599 118.52C189.08 117.937 189.026 116.798 188.919 115.977ZM147.149 113.435C148.136 110.628 149.578 108.404 151.553 106.656C152.007 106.259 152.567 105.861 153.341 105.438C153.661 105.252 154.088 105.199 154.435 105.146C154.569 105.12 154.676 105.173 154.782 105.226C154.889 105.305 154.943 105.411 154.943 105.544C154.996 105.994 154.969 106.391 154.889 106.709C154.249 109.278 152.967 111.423 151.072 113.064C150.218 113.806 149.257 114.097 148.136 113.938C147.763 113.885 147.443 113.753 147.122 113.568C147.149 113.515 147.149 113.462 147.149 113.435ZM75.2984 104.882C75.245 104.908 75.2183 104.908 75.165 104.908C75.1116 104.908 75.0849 104.908 75.0582 104.882C74.9781 104.855 74.9247 104.776 74.898 104.696C74.818 104.405 74.5511 103.425 74.9514 103.028C75.0315 102.948 75.245 102.79 75.5653 102.869C76.019 102.975 76.2859 103.24 76.3393 103.584C76.3393 104.061 75.9657 104.537 75.2984 104.882ZM170.129 122.863C170.023 123.18 169.809 123.498 169.542 123.684C169.302 123.842 169.008 123.922 168.715 123.948C168.555 123.975 168.394 123.975 168.234 123.975C167.54 124.001 166.9 123.604 166.713 122.916C166.686 122.783 166.66 122.624 166.66 122.465C166.633 121.353 167.647 120.426 168.741 120.347C169.115 120.32 169.489 120.373 169.862 120.4C170.023 120.426 170.209 120.453 170.343 120.559C170.823 121.009 170.316 122.359 170.129 122.863Z" fill="#ED1C28"/>
<path d="M67.1847 115.554C66.731 114.468 65.8235 113.912 64.9427 113.382C64.8627 113.329 64.7826 113.276 64.7025 113.223V113.144C64.7292 112.959 64.7559 112.773 64.7826 112.614C65.7968 107.397 67.2648 101.995 69.1064 96.5663L69.1598 96.381C69.3466 95.7984 69.5602 95.2158 69.6936 94.6067C69.9605 93.4944 69.8804 92.3293 69.4801 91.2435C69.0264 89.9989 68.1723 89.072 67.4249 88.2511C67.2648 88.0657 67.078 87.8803 66.8111 87.7744C66.6776 87.7214 66.5441 87.695 66.4107 87.6685C65.6367 87.589 64.916 88.1716 64.4089 88.5953L64.2755 88.7013C62.3004 90.2902 60.352 92.1704 58.11 94.6596C53.279 99.9825 48.7417 105.967 44.231 112.959C44.0441 113.276 43.8306 113.568 43.6438 113.859L43.5637 113.965C43.0299 114.071 42.4694 114.018 41.9089 113.938C41.7221 113.912 41.5353 113.885 41.3751 113.885L41.215 113.859C40.9748 113.832 40.7612 113.806 40.4943 113.832C40.2541 113.859 39.8271 113.885 39.5335 114.23C38.8929 114.998 39.8538 115.819 40.3075 116.216C40.3876 116.269 40.4409 116.322 40.4943 116.375C40.6545 116.534 40.8146 116.666 40.9748 116.798C41.1883 116.984 41.4018 117.143 41.5886 117.354L41.5353 117.46C41.4018 117.725 41.295 117.937 41.1883 118.175C40.5477 119.394 39.8538 120.744 39.4801 122.227C39.2666 123.127 39.1064 123.948 39.053 124.69C38.973 125.59 39.2399 126.438 39.7737 127.126C40.0139 127.444 40.3876 127.629 40.7079 127.576C41.0281 127.576 41.3217 127.391 41.5353 127.1C41.6687 126.888 41.8022 126.65 41.9089 126.438C41.9623 126.305 42.0424 126.199 42.0958 126.093L43.2434 124.107C44.231 122.386 45.2185 120.691 46.1794 118.97C46.4196 118.546 46.6865 118.387 47.247 118.361C48.8484 118.281 50.4232 118.175 52.0246 118.017C53.1189 117.937 54.2399 117.831 55.3342 117.725C56.295 117.646 57.2559 117.54 58.2434 117.46C58.4837 117.434 58.6972 117.46 58.9641 117.46C58.9908 117.46 58.9908 117.46 59.0175 117.46V117.487C59.0175 117.725 59.0175 117.937 59.0175 118.149C58.9908 118.493 58.9908 118.837 58.9641 119.182C58.9374 119.711 58.9107 120.214 58.884 120.744C58.8306 122.386 58.9641 123.684 59.3111 124.849C59.658 125.961 60.2986 126.835 61.2595 127.444C61.4196 127.523 61.6865 127.709 62.0335 127.709C62.2203 127.709 62.4338 127.656 62.674 127.523C62.7808 127.47 62.8342 127.391 62.8609 127.285C63.1011 126.305 63.1545 125.273 63.2078 124.266C63.2612 123.578 63.2879 122.863 63.3947 122.174C63.4748 121.592 63.5281 120.982 63.6082 120.4C63.715 119.367 63.8217 118.361 64.0619 117.407C64.5424 117.328 65.0495 117.407 65.5833 117.487L65.9837 117.54C66.2772 117.593 66.6509 117.646 67.0246 117.381C67.6918 116.825 67.3716 116.057 67.1847 115.554ZM63.3947 97.0165C63.2345 97.4667 63.0744 97.8904 62.9676 98.3406C62.8075 98.9232 62.6474 99.5058 62.4605 100.088C62.2737 100.697 62.0869 101.307 61.9267 101.942C61.6331 103.028 61.3395 104.246 60.9925 105.729C60.7256 106.947 60.4587 108.165 60.2185 109.383C60.0317 110.284 59.8716 111.158 59.7114 112.111L59.578 112.853C57.7897 112.959 56.0281 113.144 54.3466 113.356C52.7986 113.541 51.1972 113.7 49.6224 113.806C52.9587 108.96 56.6954 104.14 60.699 99.4528C61.6064 98.42 62.5673 97.2813 63.715 96.0897C63.6349 96.381 63.5281 96.6987 63.3947 97.0165Z" fill="#ED1C28"/>
<path d="M179.231 116.401H179.604C179.845 116.401 180.005 116.428 180.112 116.481C180.272 116.587 180.352 116.772 180.352 117.063V117.275V117.355V117.381V117.407H180.779V117.381C180.779 117.355 180.752 117.302 180.752 117.249C180.752 117.169 180.752 117.116 180.752 117.063V116.878C180.752 116.745 180.699 116.613 180.619 116.481C180.512 116.348 180.378 116.269 180.165 116.242C180.325 116.216 180.459 116.189 180.539 116.11C180.699 116.004 180.805 115.845 180.805 115.607C180.805 115.262 180.672 115.051 180.405 114.945C180.245 114.892 180.031 114.865 179.711 114.865H178.804V117.434H179.257V116.401H179.231ZM179.231 115.157H179.631C179.871 115.157 180.058 115.183 180.192 115.262C180.298 115.315 180.352 115.448 180.352 115.633C180.352 115.845 180.272 115.977 180.085 116.03C179.978 116.083 179.845 116.083 179.658 116.083H179.231V115.157Z" fill="#ED1C28"/>
<path d="M179.738 118.493C180.406 118.493 180.966 118.255 181.42 117.805C181.874 117.355 182.114 116.772 182.114 116.136C182.114 115.474 181.874 114.945 181.42 114.468C180.966 114.018 180.406 113.78 179.738 113.78C179.098 113.78 178.537 114.018 178.084 114.468C177.63 114.918 177.39 115.474 177.39 116.136C177.39 116.798 177.63 117.355 178.084 117.805C178.511 118.255 179.071 118.493 179.738 118.493ZM178.297 114.706C178.697 114.309 179.178 114.124 179.738 114.124C180.299 114.124 180.779 114.309 181.18 114.706C181.58 115.104 181.767 115.58 181.767 116.136C181.767 116.693 181.58 117.169 181.18 117.566C180.779 117.964 180.299 118.176 179.738 118.176C179.178 118.176 178.697 117.99 178.297 117.566C177.897 117.169 177.71 116.693 177.71 116.136C177.71 115.58 177.897 115.104 178.297 114.706Z" fill="#ED1C28"/>
</g>
<defs>
<clipPath id="clip0_654_7903">
<rect width="150" height="42" fill="white" transform="translate(39 86)"/>
</clipPath>
</defs>
</svg>
