<?xml version="1.0" encoding="UTF-8"?><svg id="Capa_2" xmlns="http://www.w3.org/2000/svg" viewBox="0 0 76.05 79.9"><defs><style>.cls-1{fill:#1a2c49;}.cls-1,.cls-2{stroke-width:0px;}.cls-2{fill:#fff;}</style></defs><g id="Capa_1-2"><g id="pOHLgd"><path class="cls-1" d="m26.67,66.09c0-.83-.03-1.67,0-2.5.07-1.69-.64-2.87-2.09-3.77-5.64-3.52-9.4-8.49-11.19-14.89-4.02-14.41,5.36-29.28,20.1-31.91,14.24-2.54,27.91,7.18,29.77,21.47,1.41,10.82-2.73,19.32-11.84,25.34-1.39.92-2.1,2.05-2.06,3.71.04,1.76.02,3.53,0,5.29-.01,2.06-.99,3.51-2.82,4.44-.22.11-.46.41-.49.64-.29,3.09-2.36,5.48-5.43,5.83-1.78.21-3.63.19-5.41-.03-2.92-.37-5-2.81-5.25-5.76-.02-.24-.24-.56-.46-.66-1.89-.94-2.87-2.44-2.86-4.56,0-.88,0-1.76,0-2.64Zm19.81,1.92c-.07-.04-.09-.06-.11-.06-5.47-.01-10.95-.02-16.42-.01-.15,0-.42.28-.44.45-.17,1.56.66,2.44,2.3,2.45,4.12,0,8.24,0,12.35,0,1.85,0,2.6-.92,2.31-2.83Z"/><path class="cls-1" d="m39.45,4.55c0,1,.01,2,0,3-.01.92-.61,1.55-1.42,1.55-.81,0-1.41-.64-1.41-1.56-.01-2-.01-3.99,0-5.99C36.61.63,37.22,0,38.03,0c.81,0,1.4.63,1.42,1.56.02,1,0,2,0,3Z"/><path class="cls-1" d="m57.74,6.46c-.04.11-.08.38-.2.6-1.01,1.77-2.03,3.54-3.06,5.31-.34.59-.86.89-1.56.75-.62-.13-1.03-.53-1.09-1.16-.03-.31.03-.68.18-.95,1.01-1.8,2.05-3.59,3.1-5.37.35-.59.89-.85,1.58-.67.63.16,1.05.72,1.06,1.51Z"/><path class="cls-1" d="m4.55,36.56c1,0,1.99-.01,2.99,0,.92.02,1.49.54,1.52,1.35.03.85-.53,1.46-1.47,1.47-2.04.03-4.08.03-6.13,0-.89-.01-1.47-.63-1.47-1.42,0-.81.63-1.38,1.56-1.4,1-.02,1.99,0,2.99,0Z"/><path class="cls-1" d="m71.55,36.56c1,0,2-.01,2.99,0,.89.02,1.49.59,1.51,1.37.02.79-.56,1.43-1.45,1.44-2.07.03-4.13.03-6.2,0-.9-.02-1.45-.63-1.43-1.45.02-.81.59-1.35,1.5-1.37,1.02-.02,2.04,0,3.06,0Z"/><path class="cls-1" d="m24.26,11.6c-.05.78-.36,1.25-.99,1.47-.62.22-1.27-.02-1.66-.64-.61-.99-1.17-2.01-1.76-3.02-.43-.74-.86-1.48-1.28-2.22-.49-.87-.31-1.67.44-2.1.71-.41,1.51-.17,1.99.65,1,1.7,1.99,3.41,2.96,5.12.15.26.22.57.29.75Z"/><path class="cls-1" d="m71.14,55.97c-.01,1.4-1.14,2.04-2.16,1.48-1.02-.55-2.02-1.16-3.03-1.74-.74-.43-1.49-.84-2.22-1.28-.82-.49-1.06-1.28-.65-1.99.41-.71,1.23-.93,2.04-.47,1.76.99,3.52,1.98,5.24,3.04.39.24.62.76.78.96Z"/><path class="cls-1" d="m13.15,22.57c0,1.25-1.05,2.01-1.94,1.54-1.94-1.05-3.85-2.16-5.74-3.31-.63-.38-.73-1.22-.35-1.84.36-.59,1.1-.89,1.73-.54,1.93,1.06,3.85,2.17,5.74,3.31.31.19.45.67.56.84Z"/><path class="cls-1" d="m71.13,20.01c-.15.19-.36.69-.74.92-1.76,1.08-3.56,2.1-5.36,3.11-.76.42-1.58.16-1.96-.54-.37-.68-.16-1.47.57-1.9,1.76-1.04,3.53-2.07,5.31-3.06,1.06-.59,2.21.06,2.19,1.48Z"/><path class="cls-1" d="m13.29,53.27c-.3.37-.52.86-.9,1.09-1.76,1.08-3.56,2.1-5.37,3.11-.73.41-1.52.18-1.92-.49-.41-.69-.21-1.53.54-1.97,1.76-1.04,3.53-2.07,5.31-3.06,1.06-.59,2.21.08,2.33,1.32Z"/><path class="cls-1" d="m55.98,32.34c0-4.28-2.9-8.02-6.82-9.08-.29-.08-.61-.36-.74-.63-1.78-3.8-6.19-5.3-9.97-3.38-.23.12-.61.13-.83.02-3.91-1.95-8.14-.49-10.04,3.47-.1.22-.36.45-.6.51-6.22,1.74-8.8,8.54-5.33,14.04.12.19.15.55.05.75-1.62,3.46-.94,6.62,1.97,9.2.16.14.29.44.27.65-.25,3.62,1.86,6.26,5.45,6.82.24.04.52.21.68.41,1.84,2.32,4.75,3.04,7.45,1.85.29-.13.74-.12,1.03.01,2.61,1.15,5.59.43,7.36-1.77.21-.26.58-.47.91-.52,3.37-.56,5.57-3.34,5.29-6.7-.02-.27.14-.65.34-.82,2.74-2.31,3.51-5.84,1.91-9.03-.19-.38-.16-.62.07-.96,1.04-1.52,1.52-3.22,1.55-4.85Z"/><path class="cls-1" d="m55.98,32.34c-.04,1.63-.51,3.33-1.55,4.85-.23.34-.26.58-.07.96,1.6,3.19.83,6.72-1.91,9.03-.21.17-.37.55-.34.82.29,3.36-1.91,6.15-5.29,6.7-.33.05-.71.26-.91.52-1.77,2.2-4.74,2.92-7.36,1.77-.29-.13-.74-.14-1.03-.01-2.7,1.18-5.6.47-7.45-1.85-.16-.2-.43-.37-.68-.41-3.59-.56-5.7-3.21-5.45-6.82.01-.21-.11-.51-.27-.65-2.91-2.58-3.58-5.74-1.97-9.2.09-.2.07-.56-.05-.75-3.47-5.5-.89-12.3,5.33-14.04.23-.06.49-.29.6-.51,1.9-3.95,6.13-5.41,10.04-3.47.22.11.6.1.83-.02,3.78-1.92,8.19-.42,9.97,3.38.13.27.45.55.74.63,3.92,1.05,6.81,4.79,6.82,9.08Zm-22.97,21.73c1.04.7,2.1.85,3.2.35.18-.08.35-.37.37-.58.05-.59.02-1.19.02-1.78,0-9.79,0-19.58.02-29.37,0-.62-.22-.89-.75-1.11-1.77-.71-3.87-.2-5.05,1.27-.11.14-.18.31-.28.49,1.63.61,2.79,1.65,3.55,3.14.36.72.14,1.48-.5,1.87-.67.41-1.47.21-1.94-.46-.05-.08-.1-.16-.15-.24-.94-1.51-2.26-2.05-3.97-1.58-1.91.53-3.26,1.75-4.06,3.54-.91,2.04-.71,4.02.45,5.95.2-.11.35-.19.49-.27,1.81-1.02,3.73-1.24,5.73-.68,2.97.83,5.21,3.78,5.18,6.8,0,.75-.38,1.3-1.02,1.47-.64.17-1.21,0-1.55-.58-.17-.29-.24-.67-.27-1.01-.26-2.84-2.78-4.69-5.52-3.97-1.75.46-2.83,1.63-3.16,3.41-.29,1.58.17,2.95,1.34,4.02.65-.49,1.23-.99,1.87-1.38.56-.35,1.27-.17,1.69.3.42.48.49,1.21.1,1.72-.18.24-.44.42-.69.61-1.03.76-1.47,1.8-1.32,3.05.15,1.33.91,2.25,2.17,2.67,1.34.44,2.53.16,3.52-.89.72-.77,1.56-.87,2.19-.29.63.58.61,1.46-.11,2.21-.44.46-.96.85-1.53,1.35Zm19.07-18.54c2.13-3.13.83-7.53-2.62-9.13-1.71-.79-3.89-.8-5.02,1.43-.03.06-.08.12-.12.18-.46.58-1.23.73-1.86.35-.6-.36-.84-1.08-.56-1.74.12-.28.29-.55.45-.81.75-1.18,1.83-1.96,3.12-2.47-.85-1.76-3.32-2.55-5.29-1.76-.52.21-.76.49-.75,1.11.04,3.41.02,6.81.02,10.22,0,6.88,0,13.77,0,20.65,0,.26.03.64.19.77.78.59,2.71.54,3.29-.3-.56-.52-1.17-.99-1.65-1.57-.65-.77-.36-1.84.52-2.2.69-.28,1.26-.06,1.72.48.57.66,1.28,1.06,2.15,1.13,1.53.12,2.89-.71,3.4-2.08.54-1.45.06-2.94-1.26-3.9-.85-.61-1.06-1.42-.56-2.13.48-.68,1.32-.78,2.15-.2.5.35.96.77,1.48,1.2,1.13-1.03,1.61-2.33,1.41-3.83-.22-1.67-1.14-2.87-2.72-3.48-2.88-1.11-5.73.79-6,3.96-.09.98-.68,1.57-1.53,1.51-.82-.06-1.32-.69-1.3-1.65.08-3.35,2.7-6.32,6-6.85,1.93-.31,3.68.1,5.35,1.12Z"/><path class="cls-2" d="m33.01,54.07c.57-.5,1.09-.89,1.53-1.35.72-.75.74-1.63.11-2.21-.63-.58-1.47-.48-2.19.29-.99,1.05-2.18,1.34-3.52.89-1.26-.42-2.02-1.34-2.17-2.67-.14-1.25.29-2.29,1.32-3.05.25-.18.51-.37.69-.61.38-.51.32-1.24-.1-1.72-.42-.47-1.13-.65-1.69-.3-.64.39-1.22.89-1.87,1.38-1.17-1.07-1.63-2.44-1.34-4.02.33-1.78,1.41-2.95,3.16-3.41,2.74-.71,5.26,1.13,5.52,3.97.03.35.1.73.27,1.01.34.57.91.74,1.55.58.64-.17,1.01-.72,1.02-1.47.04-3.01-2.2-5.97-5.18-6.8-2-.56-3.91-.34-5.73.68-.14.08-.29.16-.49.27-1.17-1.93-1.37-3.91-.45-5.95.8-1.79,2.15-3.01,4.06-3.54,1.71-.47,3.03.07,3.97,1.58.05.08.09.17.15.24.47.68,1.27.87,1.94.46.64-.39.86-1.16.5-1.87-.75-1.49-1.91-2.53-3.55-3.14.1-.18.17-.35.28-.49,1.18-1.47,3.27-1.98,5.05-1.27.53.21.75.49.75,1.11-.02,9.79-.02,19.58-.02,29.37,0,.6.03,1.19-.02,1.78-.02.21-.19.5-.37.58-1.11.49-2.16.35-3.2-.35Z"/><path class="cls-2" d="m52.08,35.52c-1.66-1.03-3.42-1.43-5.35-1.12-3.3.53-5.92,3.5-6,6.85-.02.96.48,1.59,1.3,1.65.85.06,1.45-.52,1.53-1.51.27-3.17,3.13-5.07,6-3.96,1.58.61,2.49,1.81,2.72,3.48.2,1.51-.27,2.8-1.41,3.83-.52-.43-.98-.85-1.48-1.2-.83-.57-1.67-.47-2.15.2-.5.71-.29,1.52.56,2.13,1.32.96,1.81,2.45,1.26,3.9-.51,1.37-1.87,2.2-3.4,2.08-.88-.07-1.58-.47-2.15-1.13-.46-.54-1.03-.76-1.72-.48-.88.36-1.17,1.43-.52,2.2.49.57,1.09,1.04,1.65,1.57-.57.85-2.5.89-3.29.3-.17-.12-.19-.51-.19-.77,0-6.88,0-13.77,0-20.65,0-3.41.02-6.81-.02-10.22,0-.62.23-.89.75-1.11,1.97-.8,4.45,0,5.29,1.76-1.28.51-2.36,1.29-3.12,2.47-.17.26-.33.53-.45.81-.28.66-.03,1.38.56,1.74.63.38,1.4.23,1.86-.35.04-.06.09-.11.12-.18,1.13-2.23,3.31-2.22,5.02-1.43,3.46,1.6,4.76,6,2.62,9.13Z"/></g></g></svg>