<?xml version="1.0" encoding="UTF-8"?><svg id="Capa_2" xmlns="http://www.w3.org/2000/svg" viewBox="0 0 67.95 70.35"><defs><style>.cls-1{fill:#fff;stroke-width:0px;}</style></defs><g id="Capa_1-2"><g id="NvqhJW"><path class="cls-1" d="m40.26,35.16c0-1.13.03-2.18-.01-3.22-.04-.95.21-1.65,1.28-1.85,0-.32,0-.6,0-.88,0-8.42,0-16.84,0-25.26,0-1.85,1.04-3.3,2.68-3.79,2.35-.7,4.73.98,4.87,3.43.02.28,0,.57,0,.86,0,8.25,0,16.51,0,24.76v.88c1.05.22,1.3.93,1.26,1.87-.04,1.04,0,2.08,0,3.2.46,0,.84-.02,1.21,0,.81.05,1.26.51,1.29,1.32.02.52,0,1.05,0,1.57,0,10.16,0,20.31,0,30.47,0,1.44-.37,1.8-1.82,1.8-3.88,0-7.76,0-11.63,0-1.2,0-1.65-.44-1.65-1.63,0-10.63,0-21.27,0-31.9,0-1.21.43-1.64,1.62-1.65.26,0,.52,0,.9,0Z"/><path class="cls-1" d="m51.58,20.21c0-.34,0-.61,0-.89,0-5.11,0-10.22,0-15.33,0-1.41,0-1.41,1.4-1.65,4.65-.78,9.19-.31,13.61,1.3,1.23.45,1.37.68,1.37,1.99,0,4.71,0,9.41,0,14.12,0,1.33-.77,1.89-1.99,1.42-4.47-1.71-9.05-2.04-13.73-1.07-.18.04-.36.06-.65.11Z"/><path class="cls-1" d="m35.2,70.34c-2.98,0-5.88.01-8.78,0-.72,0-1.19-.51-1.26-1.21-.02-.19-.01-.38-.01-.57,0-8.01,0-16.02,0-24.04,0-1.43.39-1.82,1.82-1.82,2.47,0,4.95,0,7.42,0h.81v27.65Z"/><path class="cls-1" d="m22.63,50.24v20.04c-.11.03-.2.06-.29.06-2.78,0-5.56.01-8.34,0-.92,0-1.41-.5-1.42-1.42,0-5.75,0-11.5,0-17.25,0-.87.46-1.41,1.26-1.42,2.9-.02,5.8,0,8.78,0Z"/><path class="cls-1" d="m10.03,57.86v12.48c-1.97,0-3.9,0-5.82,0-.93,0-1.85.01-2.78,0-.93-.02-1.42-.49-1.42-1.41-.01-3.26-.01-6.51,0-9.77,0-.83.45-1.36,1.23-1.37,2.88-.02,5.75,0,8.63,0,.04,0,.08.04.16.07Z"/></g></g></svg>
