<?xml version="1.0" encoding="UTF-8"?><svg id="Capa_2" xmlns="http://www.w3.org/2000/svg" viewBox="0 0 85.31 81.92"><defs><style>.cls-1{fill:#1a2c49;stroke-width:0px;}</style></defs><g id="Capa_1-2"><g id="lJzaFv"><path class="cls-1" d="m62.65,53.7c-1.58,4.21-4.21,7.55-8.02,10.2-.14-.81-.23-1.48-.39-2.14-.16-.68-.33-1.37-.62-2-.53-1.2-1.44-1.78-2.82-1.81-1.42-.03-2.87-.14-4.23-.5-2.23-.58-3-2.17-2.34-4.38.62-2.06,1.94-3.64,3.56-4.99,1.82-1.52,2.21-3.1,1.22-5.27-.65-1.42-1.6-2.58-3.07-3.22-1.45-.63-2.51-.15-3.04,1.34-.21.61-.36,1.24-.59,1.83-.5,1.24-.96,2.51-1.59,3.69-1.39,2.62-2.67,2.9-5.11,1.26-.46-.31-.93-.62-1.44-.82-.79-.32-1.36-.06-1.73.7-.1.21-.19.43-.23.66-.5,2.53-1.93,4.46-3.83,6.12-1.27,1.11-2.61,2.19-3.14,3.92-6.51-8.07-5.19-23.6,6.5-30.24,1.6,2.18,2.03,4.59,1.39,7.2-.2.82-.48,1.62-.68,2.44-.46,1.91.71,3.22,2.68,2.97.57-.07,1.15-.26,1.66-.5,1.91-.91,3.38-2.29,4.18-4.28.75-1.86.28-3.51-1.28-4.77-.23-.18-.57-.31-.67-.54-.21-.48-.44-1.04-.36-1.52.05-.27.67-.6,1.07-.64,2-.22,3.51-1.14,4.62-2.81.17-.26.66-.49.96-.45,4.22.53,7.98,2.14,11.21,4.92.19.16.41.42.41.63-.02,1.48.06,2.98-.2,4.42-.28,1.53-1.38,2.51-2.9,2.98-1.71.54-2.46,1.53-2.3,3.32.08.93.36,1.91.81,2.72.82,1.5,2.15,1.74,3.65.93.66-.36,1.35-.7,2.07-.9,1.26-.35,2.1.23,1.99,1.52-.11,1.34-.54,2.66-.86,3.98-.08.34-.28.64-.39.97-.38,1.17.08,2.23,1.24,2.6.79.25,1.65.3,2.61.46Z"/><path class="cls-1" d="m33.8,48.29c.57.39,1.03.72,1.51,1.04,2.4,1.59,4.26,1.27,5.98-1.03,1.43-1.93,2.2-4.17,2.93-6.42.38-1.16.82-1.38,1.69-.55.74.7,1.38,1.58,1.83,2.5.57,1.17.24,2.1-.77,2.94-2.06,1.72-3.73,3.71-4.35,6.39-.58,2.52.41,4.64,2.85,5.48,1.57.53,3.29.65,4.96.82,1.31.13,1.7.27,2.04,1.57.26,1.01.37,2.06.57,3.09.11.56-.12.84-.61,1.08-5.67,2.78-11.47,3.11-17.39.93-2.89-1.07-5.37-2.76-7.58-4.91-1.08-1.05-1-1.99-.43-2.98.46-.82,1.17-1.51,1.82-2.21.88-.93,1.85-1.78,2.7-2.74,1.04-1.18,1.67-2.59,2.02-4.12.06-.25.13-.49.23-.88Z"/><path class="cls-1" d="m10.29,74.55C4.59,74.54-.02,69.91,0,64.23c.02-5.69,4.65-10.3,10.34-10.27,5.7.02,10.3,4.64,10.29,10.33-.01,5.68-4.65,10.29-10.34,10.27Zm-.28-4.73c2.25,0,4.15-.77,5.44-2.02.37-.36.65-.74.26-1.2-.42-.5-.85-.31-1.29.06-2.66,2.21-5.58,2.22-8.17.02-.43-.36-.85-.6-1.28-.11-.44.5-.1.91.29,1.27,1.44,1.32,3.16,1.94,4.74,1.98Zm3.22-8.79c0-.2,0-.31,0-.43.02-.57-.1-1.11-.8-1.09-.65.02-.74.54-.73,1.08,0,.12,0,.23,0,.35.04.6-.2,1.45.76,1.46.96,0,.72-.85.77-1.37Zm-4.31-.04c0-.2,0-.41,0-.61,0-.51-.23-.94-.73-.84-.3.06-.63.5-.75.84-.13.36-.13.84,0,1.19.13.33.5.57.77.85.24-.27.51-.53.69-.83.09-.15.02-.4.02-.6Z"/><path class="cls-1" d="m74.92,74.55c-5.75-.08-10.32-4.76-10.22-10.48.1-5.64,4.76-10.17,10.41-10.12,5.74.06,10.3,4.74,10.21,10.48-.09,5.66-4.75,10.19-10.4,10.11Zm.05-4.72c1.96-.04,3.68-.66,5.12-1.99.39-.36.73-.76.28-1.27-.43-.49-.86-.25-1.29.11-2.61,2.19-5.52,2.18-8.17-.02-.44-.37-.87-.56-1.28-.06-.39.47-.1.86.27,1.2,1.44,1.33,3.14,1.97,5.06,2.03Zm-2.85-8.91c0,.23-.08.51.02.68.18.31.43.72.72.79.52.11.76-.31.78-.81.01-.43.1-.9-.03-1.29-.1-.31-.48-.53-.74-.79-.25.27-.53.52-.73.82-.09.14-.02.4-.02.6Zm4.3.02h0c0,.2,0,.41,0,.61,0,.5.22.95.74.83.3-.07.63-.5.75-.84.13-.36.13-.84,0-1.19-.13-.33-.5-.57-.77-.85-.23.28-.51.53-.69.84-.09.15-.02.4-.02.6Z"/><path class="cls-1" d="m51.99,10.33c-.02,5.71-4.63,10.29-10.33,10.26-5.71-.03-10.3-4.64-10.28-10.33C31.41,4.58,36.04-.02,41.73,0c5.71.02,10.29,4.62,10.27,10.33Zm-10.32,5.53c2-.07,3.74-.7,5.18-2.08.38-.36.62-.75.19-1.2-.42-.44-.81-.24-1.22.09-2.72,2.24-5.48,2.24-8.23-.01-.41-.34-.81-.52-1.22-.08-.42.45-.19.84.19,1.2,1.44,1.38,3.18,2.01,5.12,2.08Zm-2.87-8.92c0,.2,0,.41,0,.61,0,.51.22.94.74.83.31-.07.65-.48.77-.82.13-.36.13-.84,0-1.2-.13-.34-.51-.58-.78-.86-.24.27-.52.52-.71.83-.09.15-.02.4-.02.6Zm5.79.08s0,0,0,0c0-.2.07-.45-.02-.6-.2-.33-.48-.61-.72-.91-.27.28-.67.53-.77.86-.13.42-.12.95.01,1.37.08.28.49.63.75.63.25,0,.54-.39.72-.67.1-.17.02-.45.02-.69Z"/><path class="cls-1" d="m12.25,24.63c-2.33-2.2-3.31-4.85-3.02-7.95.16-1.66.77-3.16,1.8-4.49.48-.62.96-.65,1.56-.17,2.19,1.75,3.24,4.07,3.41,6.83.02.29,0,.58,0,.87.08.03.15.05.23.08.11-.27.29-.54.34-.82.82-5.12,5.48-8.91,10.61-8.65,1.39.07,1.63.35,1.44,1.73-.66,4.82-5.2,8.68-10.19,8.62-.68,0-1.13.19-1.58.69-6.67,7.39-9.75,16.06-9.29,25.99.02.38.05.76.08,1.14.04.53-.1.97-.69,1.03-.61.06-.83-.36-.84-.88-.02-2.22-.16-4.44,0-6.64.48-6.14,2.51-11.78,5.89-16.93.08-.12.13-.25.23-.44Z"/><path class="cls-1" d="m58.7,32.25c1.82,2.04,3.06,4.19,3.95,6.56,1.48,3.96,1.68,8.01.83,12.13-.16.77-.52,1.1-1.27,1.08-.23,0-.47.03-.7.02-1.32-.08-1.51-.41-.99-1.63.64-1.51,1.16-3.05,1.09-4.73-.1-2.22-1.67-3.5-3.83-2.99-.89.21-1.73.67-2.57,1.07-.78.37-1.34.31-1.65-.48-.31-.78-.43-1.67-.45-2.52,0-.35.43-.92.77-1.02,3.55-1,4.76-3.55,4.75-6.96,0-.11.03-.22.08-.53Z"/><path class="cls-1" d="m77.84,45.76c.17-14.61-8.56-27.67-22.16-33.12-.24-.1-.57-.16-.69-.34-.17-.25-.32-.67-.22-.9.11-.23.56-.46.82-.41.54.09,1.05.34,1.55.57,12.92,5.98,20.32,16.03,22,30.18.27,2.24.06,4.54.06,6.81,0,.54-.15,1.05-.82,1-.71-.05-.75-.6-.7-1.17.07-.87.11-1.75.16-2.62Z"/><path class="cls-1" d="m42.27,81.92c-6.73-.06-13.28-1.94-19.29-5.71-.1-.06-.2-.12-.3-.19-.47-.3-.92-.63-.5-1.26.37-.55.85-.37,1.3-.08.37.23.74.48,1.12.69,12.3,6.83,24.52,6.69,36.68-.37.23-.13.44-.38.67-.39.38-.02.9-.04,1.13.18.38.37.15.83-.29,1.09-1.2.71-2.39,1.46-3.64,2.09-5.19,2.62-10.71,3.91-16.89,3.94Z"/><path class="cls-1" d="m33.13,27.21c3.06-1.5,6.21-2.24,9.7-2.27-.19.28-.28.48-.43.64-.77.84-1.77,1.2-2.88,1.28-1.11.08-2,.53-2.35,1.64-.36,1.16-.14,2.25.72,3.16.08.08.17.16.26.23,1.98,1.57,2.22,2.96.53,4.84-.84.95-2.01,1.64-3.11,2.31-.32.2-1.04.11-1.35-.13-.25-.2-.24-.84-.17-1.26.1-.66.36-1.29.54-1.93.71-2.53.46-4.96-.81-7.28-.21-.38-.42-.76-.67-1.22Z"/></g></g></svg>