<?xml version="1.0" encoding="UTF-8"?><svg id="Capa_2" xmlns="http://www.w3.org/2000/svg" viewBox="0 0 75.79 75.35"><defs><style>.cls-1{fill:#fff;stroke-width:0px;}</style></defs><g id="Capa_1-2"><g id="sFcS7x"><path class="cls-1" d="m21.64,66.94c.96-.55,1.85-.99,2.67-1.55.73-.5,1.44-.55,2.29-.37,7.08,1.51,14.18,2.97,21.26,4.47,1.3.28,2.48.06,3.62-.6,7.29-4.21,14.59-8.41,21.88-12.63.49-.28.96-.65,1.34-1.07,1.45-1.66,1.45-4.23.04-5.92-1.41-1.7-3.83-2.13-5.84-.98-5.58,3.2-11.16,6.41-16.72,9.64-.29.17-.54.49-.68.8-1.32,2.87-4.33,4.37-7.4,3.58-3.95-1.02-7.88-2.11-11.82-3.16-.6-.16-1.07-.43-.87-1.13.2-.68.73-.69,1.33-.53,3.81,1.03,7.62,2.06,11.44,3.05.65.17,1.35.29,2.01.21,2.27-.25,3.92-2.04,4.09-4.28.16-2.18-1.29-4.11-3.65-4.75-7.55-2.03-15.1-4.05-22.65-6.07-1.88-.5-3.76-.54-5.51.34-1.71.85-3.33,1.86-4.99,2.8-.56.32-1.11.65-1.73,1.02,3.31,5.72,6.58,11.38,9.91,17.13Zm38.57-23.86c5.98,0,10.86-4.86,10.87-10.82,0-5.97-4.86-10.84-10.83-10.85-5.97-.01-10.86,4.86-10.87,10.81,0,5.96,4.87,10.85,10.84,10.85ZM18.12,23.27c0-.46,0-.75,0-1.03,0-2.7,0-5.39,0-8.09,0-.24-.07-.53.04-.69.2-.28.51-.66.79-.67.28,0,.64.34.83.62.14.2.06.56.06.84,0,6.23,0,12.46,0,18.69,0,1.2-.02,2.41.01,3.61.03,1.24.91,2.12,2.06,2.13,1.12,0,1.98-.83,2.09-2.03.02-.26.02-.52.02-.78,0-3.06,0-6.12,0-9.19,0-.58.11-1.09.8-1.11.73-.02.92.47.92,1.1,0,2.17,0,4.34,0,6.52,0,1.2-.02,2.41.03,3.61.05,1.04.85,1.8,1.87,1.88,1,.08,1.91-.56,2.15-1.57.09-.38.09-.78.09-1.17,0-7.22,0-14.45,0-21.67,0-.26-.08-.58.04-.77.18-.29.51-.71.76-.7.31.01.65.37.88.66.12.14.04.45.04.69,0,2.72,0,5.44,0,8.17,0,.27.03.55.04.84,1.22-.39,1.91-1.43,1.92-2.9.02-2.77.01-5.55,0-8.32,0-2.22-1.23-3.45-3.45-3.46-3.51-.01-7.01-.01-10.52,0-2.24,0-3.47,1.26-3.47,3.53,0,2.64,0,5.29,0,7.93,0,.42.02.85.13,1.24.24.92.79,1.61,1.86,2.1Zm3.36,46.84c-4.16-7.19-8.26-14.28-12.39-21.42-3.07,1.77-6.07,3.5-9.1,5.25,4.15,7.18,8.25,14.27,12.38,21.41,3.05-1.76,6.03-3.48,9.1-5.25Zm42.63-49.47c.44-3.53.89-6.94,1.28-10.36.09-.77-.36-1.4-.98-1.87-1.99-1.5-4.65-.44-5.02,2.02-.27,1.78-.53,3.57-.73,5.36-.07.65-.32.8-.93.8-2.88-.03-5.75-.01-8.63-.01-.21,0-.42,0-.63,0-.86.05-1.46.65-1.44,1.44.02.77.58,1.32,1.42,1.37.18.01.37,0,.55,0,3.69.03,7.37.03,11.06.1.81.01,1.16-.18,1.23-1.04.12-1.38.36-2.75.61-4.11.04-.22.38-.38.58-.57.13.24.36.48.38.73.03.35-.08.72-.14,1.08-.22,1.49-.45,2.99-.68,4.53.68.17,1.27.32,2.06.51Zm-21.55,16.31c-.23-.02-.38-.03-.53-.05-1.18-.19-2.19.41-2.41,1.45-.25,1.15.32,2.08,1.52,2.44.65.2,1.31.37,1.97.53,1.76.44,2.68-.14,3.06-1.91.36-1.69.69-3.38,1.09-5.06.71-2.98.97-6.11,2.69-8.78.02-.03-.02-.1-.04-.23-.97,0-1.95,0-2.94,0-1.33.01-2.02.58-2.3,1.88-.37,1.74-.75,3.47-1.12,5.21-.32,1.5-.65,3-.98,4.52ZM28.23,3.39C28.24,1.51,26.8.03,24.93,0c-1.9-.03-3.44,1.45-3.46,3.32-.02,1.83,1.56,3.42,3.4,3.42,1.84,0,3.34-1.5,3.35-3.36ZM63.53.82c-1.67-.01-3.01,1.3-3.02,2.96-.01,1.66,1.31,3.01,2.96,3.02,1.66.01,3.01-1.31,3.02-2.96.01-1.66-1.3-3-2.96-3.02Z"/><path class="cls-1" d="m21.64,66.94c-3.33-5.76-6.6-11.41-9.91-17.13.62-.36,1.17-.7,1.73-1.02,1.66-.94,3.29-1.95,4.99-2.8,1.76-.88,3.63-.85,5.51-.34,7.55,2.03,15.1,4.04,22.65,6.07,2.36.64,3.81,2.56,3.65,4.75-.17,2.24-1.82,4.03-4.09,4.28-.65.07-1.36-.05-2.01-.21-3.82-.99-7.63-2.02-11.44-3.05-.61-.16-1.14-.16-1.33.53-.2.7.27.97.87,1.13,3.94,1.05,7.87,2.13,11.82,3.16,3.07.79,6.08-.71,7.4-3.58.14-.31.4-.63.68-.8,5.57-3.23,11.14-6.44,16.72-9.64,2.01-1.15,4.43-.71,5.84.98,1.41,1.69,1.41,4.26-.04,5.92-.37.42-.85.79-1.34,1.07-7.29,4.22-14.59,8.42-21.88,12.63-1.14.66-2.31.87-3.62.6-7.09-1.5-14.18-2.96-21.26-4.47-.85-.18-1.56-.13-2.29.37-.82.55-1.71,1-2.67,1.55Z"/><path class="cls-1" d="m60.21,43.07c-5.96,0-10.85-4.9-10.84-10.85,0-5.96,4.9-10.82,10.87-10.81,5.98.01,10.84,4.88,10.83,10.85,0,5.96-4.89,10.82-10.87,10.82Z"/><path class="cls-1" d="m18.12,23.27c-1.07-.49-1.62-1.17-1.86-2.1-.1-.4-.12-.83-.13-1.24-.01-2.64-.01-5.29,0-7.93,0-2.27,1.23-3.52,3.47-3.53,3.51-.01,7.01-.01,10.52,0,2.22,0,3.45,1.24,3.45,3.46,0,2.77.01,5.55,0,8.32,0,1.46-.7,2.51-1.92,2.9-.02-.29-.04-.57-.04-.84,0-2.72,0-5.44,0-8.17,0-.24.07-.55-.04-.69-.23-.28-.57-.64-.88-.66-.25-.01-.58.4-.76.7-.12.19-.04.51-.04.77,0,7.22,0,14.45,0,21.67,0,.39,0,.79-.09,1.17-.24,1.01-1.15,1.66-2.15,1.57-1.02-.09-1.82-.84-1.87-1.88-.06-1.2-.03-2.41-.03-3.61,0-2.17,0-4.34,0-6.52,0-.62-.19-1.12-.92-1.1-.7.02-.8.53-.8,1.11,0,3.06,0,6.12,0,9.19,0,.26,0,.52-.02.78-.11,1.2-.97,2.03-2.09,2.03-1.15,0-2.03-.88-2.06-2.13-.03-1.2-.01-2.41-.01-3.61,0-6.23,0-12.46,0-18.69,0-.29.08-.64-.06-.84-.19-.28-.55-.63-.83-.62-.28,0-.59.39-.79.67-.11.16-.04.46-.04.69,0,2.7,0,5.39,0,8.09,0,.28,0,.56,0,1.03Z"/><path class="cls-1" d="m21.49,70.11c-3.07,1.77-6.05,3.49-9.1,5.25-4.13-7.14-8.23-14.23-12.38-21.41,3.03-1.75,6.03-3.48,9.1-5.25,4.13,7.14,8.23,14.23,12.39,21.42Z"/><path class="cls-1" d="m64.11,20.64c-.79-.2-1.39-.35-2.06-.51.23-1.54.46-3.04.68-4.53.05-.36.17-.73.14-1.08-.02-.25-.25-.49-.38-.73-.2.19-.54.35-.58.57-.25,1.36-.49,2.73-.61,4.11-.08.86-.43,1.05-1.23,1.04-3.69-.07-7.37-.07-11.06-.1-.18,0-.37,0-.55,0-.84-.06-1.41-.6-1.42-1.37-.02-.79.58-1.39,1.44-1.44.21-.01.42,0,.63,0,2.88,0,5.75-.02,8.63.01.61,0,.86-.15.93-.8.2-1.79.46-3.58.73-5.36.37-2.45,3.03-3.51,5.02-2.02.62.47,1.07,1.1.98,1.87-.39,3.42-.84,6.83-1.28,10.36Z"/><path class="cls-1" d="m42.57,36.95c.33-1.52.66-3.02.98-4.52.37-1.74.75-3.47,1.12-5.21.28-1.3.97-1.87,2.3-1.88.98-.01,1.97,0,2.94,0,.03.13.06.2.04.23-1.72,2.68-1.98,5.8-2.69,8.78-.4,1.68-.72,3.37-1.09,5.06-.38,1.77-1.31,2.35-3.06,1.91-.66-.16-1.32-.34-1.97-.53-1.2-.36-1.78-1.3-1.52-2.44.23-1.04,1.23-1.64,2.41-1.45.15.02.3.03.53.05Z"/><path class="cls-1" d="m28.23,3.39c-.01,1.85-1.51,3.35-3.35,3.36-1.84,0-3.42-1.58-3.4-3.42C21.5,1.45,23.03-.03,24.93,0c1.87.03,3.31,1.51,3.29,3.39Z"/><path class="cls-1" d="m63.53.82c1.66.01,2.97,1.35,2.96,3.02-.01,1.65-1.36,2.97-3.02,2.96-1.65-.01-2.98-1.36-2.96-3.02.01-1.66,1.36-2.97,3.02-2.96Z"/></g></g></svg>