<svg width="414" height="66" viewBox="0 0 414 66" fill="none" xmlns="http://www.w3.org/2000/svg">
<mask id="mask0_97_3513" style="mask-type:alpha" maskUnits="userSpaceOnUse" x="0" y="0" width="414" height="66">
<rect width="414" height="66" fill="#D9D9D9"/>
</mask>
<g mask="url(#mask0_97_3513)">
<path d="M1.24289e-05 38.0423L7.71254e-06 -13.6455L412.67 -13.6455L412.67 -5.46608C263.153 42.9295 77.7486 44.0384 1.24289e-05 38.0423Z" fill="#3D72F9"/>
<path d="M285.251 24.3587C135.38 24.3587 32.7515 10.1147 0.1709 2.99278L0.170905 -4.6458L414.171 -4.64577L414.171 14.6182C375.053 20.4521 332.707 24.3587 285.251 24.3587Z" fill="#004C97"/>
<circle cx="11.2095" cy="11.2095" r="11.2095" transform="matrix(1 8.74228e-08 8.74228e-08 -1 19.4482 37.4628)" fill="#004C97"/>
<path fill-rule="evenodd" clip-rule="evenodd" d="M46.8492 38.543C54.2469 38.543 60.2268 44.5374 60.2268 51.9106C60.2268 59.2839 54.2469 65.2782 46.8492 65.2782C39.4515 65.2782 33.4716 59.2839 33.4716 51.9106C33.4716 44.5374 39.4515 38.543 46.8492 38.543ZM46.8492 37.4628C54.8285 37.4628 61.297 43.9313 61.297 51.9106C61.297 59.8899 54.8285 66.3585 46.8492 66.3585C38.8699 66.3585 32.4014 59.8899 32.4014 51.9106C32.4014 43.9313 38.8699 37.4628 46.8492 37.4628Z" fill="#004C97"/>
</g>
</svg>