<?xml version="1.0" encoding="UTF-8"?>
<svg id="Capa_1" xmlns="http://www.w3.org/2000/svg" version="1.1" viewBox="0 0 364 464">
  <!-- Generator: Adobe Illustrator 29.2.1, SVG Export Plug-In . SVG Version: 2.1.0 Build 116)  -->
  <defs>
    <style>
      .st0 {
        fill: #ff88b1;
        fill-opacity: .4;
      }
    </style>
  </defs>
  <path class="st0" d="M84.3,415.7c-.8,0-1.7,0-2.5,0h-.1c-27.8-2.6-48.5-18.7-61.5-48-12.5-28-12.3-59.2.4-92.5,12.8-33.3,35.7-62.3,68.1-86.1,9.6-7.1,19.1-13.1,28.2-18,10.6-5.7,23.2-11.7,35.5-13.4,30-4.2,50.9,5,69.8,30.6,7.4,10.1,12.6,22.2,14.4,34v.5c.3,1.8.5,4.3-1.6,5.9l-121.8,89.7c-2.7,2-6.6,1.4-8.6-1.3l-3.7-5.1c-3.9-5.3-5.6-12.1-4.7-18.7.9-6.8,4.3-12.7,9.6-16.6l61.9-45.7c-6.1-8.5-13.5-12.4-23.2-12.2h0c-10,0-21.8,5-35.1,14.7-8.1,5.9-14.8,12.3-20,18.8-3.4,4.3-6.3,8.8-8.5,13.5-4.8,10-6.7,20.6-5.5,30.7,1.7,20.2,10.2,32.8,13.1,36.9,7.7,10.6,17,16,27.8,16h0c25.1,0,63.8-33.5,112-96.8,38.9-51.1,72.1-106,80.7-121.2,0,0,0,0,0-.2,0,0-.1,0-.2,0l-4.4,3.2c-1.4,1.1-3.3.9-4.6-.3-1.3-1.2-1.5-3.1-.6-4.6l45.9-77c2.2-3.3,5.7-3.4,8.1-2.1,2.4,1.3,4.3,4.2,2.9,7.8h0c-2,5-4.8,12.7-8.3,22.3-16.2,44.6-46.3,127.7-90.8,200.8-54.1,89-112.1,134.1-172.5,134.1ZM81.9,412.6c.8,0,1.6,0,2.4,0,59.3,0,116.4-44.6,169.9-132.7,44.3-72.9,74.4-155.8,90.5-200.3,3.5-9.7,6.3-17.4,8.3-22.4h0c.8-2-.3-3.4-1.5-4-1.2-.6-3-.7-4.2,1.1l-45.9,77c-.3.4,0,.7,0,.9.2.2.4.3.8,0l4.4-3.2c1.2-.9,2.8-.8,3.9.2,1.1,1,1.4,2.6.6,3.9-8.6,15.2-41.9,70.3-80.9,121.5-49.5,65-88,98-114.4,98h0c-11.8,0-22-5.8-30.2-17.3-3-4.3-11.9-17.4-13.6-38.3-1.2-10.6.8-21.8,5.8-32.3,2.3-4.8,5.3-9.6,8.9-14,5.3-6.7,12.3-13.3,20.5-19.4,13.8-10.2,26.2-15.3,36.9-15.3h0c11.1-.2,19.8,4.6,26.5,14.7l.8,1.2-64.2,47.4c-4.6,3.4-7.6,8.6-8.4,14.6-.8,5.9.8,11.9,4.2,16.5l3.7,5.1c.5.7,1.2,1.1,2.1,1.2.8.1,1.7,0,2.4-.6l121.8-89.7c.7-.5.6-1.5.4-3.1v-.5c-1.8-11.3-6.7-22.9-13.9-32.6-18.1-24.6-38.2-33.4-67-29.4-11.8,1.6-24.1,7.5-34.5,13.1-9,4.8-18.3,10.7-27.9,17.7-31.9,23.5-54.4,52-67,84.8-12.4,32.6-12.6,62.9-.4,90.2,12.5,28.2,32.3,43.8,58.9,46.2Z"/>
</svg>