<?xml version="1.0" encoding="UTF-8"?>
<svg id="Capa_1" xmlns="http://www.w3.org/2000/svg" version="1.1" viewBox="0 0 1016.6 458.9">
  <!-- Generator: Adobe Illustrator 29.2.1, SVG Export Plug-In . SVG Version: 2.1.0 Build 116)  -->
  <defs>
    <style>
      .st0 {
        fill: none;
        fill-rule: evenodd;
        opacity: .5;
        stroke: #b81823;
        stroke-miterlimit: 10;
        stroke-width: 6px;
      }
    </style>
  </defs>
  <path class="st0" d="M1005.8,118.8c-100.7,62.4-671.5,488.9-947.8,277.4C12.8,356.1-2.4,302.1,12.4,234.1c14.3-65.4,54.2-119.3,119.7-161.6C198.1,30.2,275.1,9,363.3,8.8c26.3,0,50.6,1.6,73,4.9,30,4.3,57.2,10.1,79.4,22.1,64.1,34.6,82.1,81.5,82.3,142.3,0,27.4-6.6,54.8-18.4,77.6-2,3.4-4,7.6-8.2,7.6l-332.9.6c-5.7,0-10.3-4.6-10.3-10.3v-13.9c0-28.3,23-53,51.3-53l172.5-.5c1.1-26.3-7.8-44.6-26.6-57.8-18.4-13.6-46.2-20.3-83.5-20.2-22.4,0-42.7,2.5-60.8,7.5-12.1,3.3-23.2,7.6-33.3,13.1-21.3,11.3-39.4,27.9-51.2,48.6-22.7,36.9-24.8,69.9-25.3,84-.2,30,9.7,52.7,29.9,67.4,108.7,79.7,555.4-102.3,629.1-135.7,3.5-1.6,2.4-6.9-1.5-6.8h-12c-5.2,0-6.5-7.2-1.6-9l181.8-76.9c11.7-4.3,19.7,11.9,9.1,18.5"/>
</svg>